<svg version="1.1" id="Слой_3" xmlns="http://www.w3.org/2000/svg" xmlns:xlink="http://www.w3.org/1999/xlink" x="0px" y="0px"
	 viewBox="0 0 500 500" style="enable-background:new 0 0 500 500;" xml:space="preserve">
<g id="XMLID_4_">
	<path id="XMLID_8_" d="M151.9,158.6v177.9h-40.4l-0.1-120.1L95.4,336.5H66.7l-17-117.3l-0.1,117.3H9.2V158.6h59.8
		c1.8,10.7,3.6,23.3,5.5,37.8l6.6,45.2l10.6-83.1H151.9z"/>
	<path id="XMLID_10_" d="M170.5,158.6h77.1v35.6h-30.9v33.7h28.9v33.8h-28.9v39.1h33.9v35.6h-80.2V158.6z"/>
	<path id="XMLID_12_" d="M367.3,158.6v177.9h-40.5l-24.1-80.9v80.9H264V158.6h38.7l25.9,80.1v-80.1H367.3z"/>
	<path id="XMLID_14_" d="M491,158.6v118.9c0,13.5-0.4,22.9-1.3,28.4c-0.9,5.5-3.5,11.1-7.8,16.8c-4.3,5.8-10,10.1-17.1,13.1
		c-7.1,3-15.4,4.4-25,4.4c-10.6,0-20-1.8-28.1-5.3c-8.1-3.5-14.2-8.1-18.2-13.7c-4-5.6-6.4-11.6-7.1-17.9
		c-0.7-6.3-1.1-19.4-1.1-39.5V158.6h46.3V292c0,7.8,0.4,12.7,1.3,14.9c0.8,2.2,2.5,3.2,5.1,3.2c2.9,0,4.8-1.2,5.7-3.6
		c0.8-2.4,1.3-8,1.3-16.9V158.6H491z"/>
</g>
<rect id="XMLID_3_" x="11" y="105" width="480" height="19"/>
<rect id="XMLID_5_" x="11" y="68" width="480" height="19"/>
<rect id="XMLID_7_" x="11" y="409" width="480" height="19"/>
<rect id="XMLID_6_" x="11" y="372" width="480" height="19"/>
</svg>
