<svg version="1.1" id="Слой_5" xmlns="http://www.w3.org/2000/svg" xmlns:xlink="http://www.w3.org/1999/xlink" x="0px" y="0px"
	 viewBox="0 0 700 700" style="enable-background:new 0 0 700 700;" xml:space="preserve">
<style type="text/css">
	.st0{fill:#FFFFFF;}
</style>
<g id="logooooooooooooo">
	<g id="XMLID_8_">
		<g id="XMLID_191_">
			<g id="XMLID_74_">
				<path id="XMLID_46_" class="st0" d="M603.3,572.4c0-0.8,0-0.8,0-1.5l-0.8-0.8c-2.3-1.5-4.5-3.8-6.8-5.3c-2.3-1.5-4.5-3-6.8-4.5
					c-4.5-3-9-6-13.6-9c-4.5-3-9.8-6-14.3-8.3c-9.8-5.3-19.6-10.6-29.4-15.1c-9.8-5.3-19.6-9.8-30.2-13.6l-1.5-0.8l-2.3,0.8l-14.3,3
					c-12.8-6.8-25.6-12.8-39.2-19.6l-21.9-12.1L402,476l-41.5-20.4L319.1,436l-3.8-1.5l-3.8,1.5c-7.5,3-15.8,6.8-23.4,9.8l-22.6,9.8
					c-3-0.8-6-0.8-9.8-1.5l-12.1-1.5c-8.3-0.8-15.8-1.5-24.1-2.3h-11.3l-6-0.8h-1.5H200h-0.8h-3h-12.1c-3.8,0-8.3,0-12.1,0.8
					c-3.8,0-8.3,0-12.1,0.8s-8.3,0.8-12.1,1.5l-12.1,2.3c-3.8,1.5-8.3,2.3-12.1,3.8c-3.8,1.5-7.5,3-11.3,5.3
					c-3.8,1.5-6.8,4.5-10.6,6.8c-3,3-6,6-7.5,9.8c-2.3,3.8-3,7.5-3,12.1c0.8-3.8,2.3-7.5,4.5-10.6c2.3-3,5.3-5.3,8.3-7.5
					c3-2.3,6.8-3.8,10.6-5.3s7.5-2.3,11.3-3.8c3.8-0.8,7.5-1.5,11.3-2.3l11.3-0.8l12.1-0.8c3.8,0,7.5,0,12.1,0c3.8,0,7.5,0,12.1,0.8
					l12.1,0.8h3h0.8l0,0l0,0l0,0l0,0h1.5l6,0.8l12.1,1.5l24.1,3.8l12.1,1.5c3.8,0.8,8.3,1.5,11.3,1.5l2.3,0.8l2.3-0.8l24.1-9
					c6.8-2.3,13.6-5.3,20.4-8.3l37.7,18.1l41.5,19.6l21.1,9.8l21.1,9.8c14.3,6,27.9,12.8,42.2,18.8l2.3,0.8l2.3-0.8l15.1-3.8
					c4.5,1.5,9,3,12.8,4.5c5.3,2.3,10.6,3.8,15.1,6c5.3,2.3,9.8,3.8,15.1,6l7.5,3c2.3,0.8,5.3,2.3,7.5,3c5.3,2.3,9.8,4.5,15.1,6.8
					l7.5,3.8c2.3,1.5,4.5,2.3,7.5,3.8c2.3,1.5,4.5,2.3,7.5,3.8L603.3,572.4l2.3,0.8C603.3,573.2,603.3,572.4,603.3,572.4z"/>
			</g>
			<g id="XMLID_69_">
				<path id="XMLID_44_" class="st0" d="M605.5,618.4l-4.5-3.8c-2.3-1.5-4.5-3.8-6.8-5.3c-2.3-1.5-4.5-3-6.8-4.5c-4.5-3-9-6-13.6-9
					s-9.8-6-14.3-8.3c-9.8-5.3-19.6-10.6-29.4-15.1c-9.8-5.3-19.6-9.8-30.2-13.6l-1.5-0.8l-2.3,0.8l-14.3,2.3
					c-12.8-6.8-25.6-12.8-39.2-19.6L422.4,531l-20.4-9.8l-41.5-20.4l-41.5-19.6l-3.8-1.5l-3.8,1.5c-7.5,3-15.8,6.8-23.4,9.8
					l-22.6,9.8c-3-0.8-6-0.8-9.8-1.5l-12.1-1.5c-8.3-0.8-15.8-1.5-24.1-2.3h-11.3l-6-0.8h-1.5H200h-0.8h-3h-12.1
					c-3.8,0-8.3,0-12.1,0.8c-3.8,0-8.3,0-12.1,0.8s-8.3,0.8-12.1,1.5l-12.1,2.3c-3.8,1.5-8.3,2.3-12.1,3.8c-3.8,1.5-7.5,3-11.3,5.3
					c-3.8,1.5-6.8,4.5-10.6,6.8c-3,3-6,6-7.5,9.8c-2.3,3.8-3,7.5-3,12.1c0.8-3.8,2.3-7.5,4.5-10.6c2.3-3,5.3-5.3,8.3-7.5
					c3-2.3,6.8-3.8,10.6-5.3s7.5-2.3,11.3-3.8c3.8-0.8,7.5-1.5,11.3-2.3l11.3-0.8l12.1-0.8c3.8,0,7.5,0,12.1,0c3.8,0,7.5,0,12.1,0.8
					l12.1,0.8h3h0.8l0,0l0,0l0,0l0,0h1.5l6,0.8l12.1,1.5l24.1,3.8l12.1,1.5c3.8,0.8,8.3,1.5,11.3,1.5l2.3,0.8l2.3-0.8l24.1-9
					c6.8-2.3,13.6-5.3,20.4-8.3l37.7,18.1l41.5,19.6l21.1,9.8l21.1,9.8c14.3,6,27.9,12.8,42.2,18.8l2.3,0.8l2.3-0.8l15.1-3.8
					c4.5,1.5,9,3,12.8,4.5c5.3,2.3,10.6,3.8,15.1,6c5.3,2.3,9.8,3.8,15.1,6l7.5,3c2.3,0.8,5.3,2.3,7.5,3c5.3,2.3,9.8,4.5,15.1,6.8
					l7.5,3.8c2.3,1.5,4.5,2.3,7.5,3.8c2.3,1.5,4.5,2.3,7.5,3.8l6.8,3.8l6,3.8C605.5,619.9,605.5,619.2,605.5,618.4z"/>
			</g>
			<g id="XMLID_59_">
				<path id="XMLID_42_" class="st0" d="M598.8,525c-3.8-3-7.5-6-12.1-9c-9-6-18.8-12.1-27.9-17.3c-9.8-5.3-19.6-10.6-29.4-15.1
					c-5.3-2.3-9.8-4.5-15.1-6.8c-5.3-2.3-9.8-4.5-15.1-6.8l-1.5-0.8l-2.3,0.8l-14.3,3c-12.8-6.8-25.6-12.8-39.2-19.6
					c-13.6-6.8-27.1-13.6-41.5-20.4c-27.9-13.6-55-26.4-82.9-39.2l-3.8-2.3L310,393c-15.1,6-30.2,12.8-45.2,19.6
					c-2.3,0-4.5-0.8-6-0.8l-9-1.5c-6-0.8-12.1-1.5-17.3-1.5l-17.3-1.5l-9-0.8c-3,0-6-0.8-9-0.8s-6,0-9,0c-3,0-6,0.8-9,0.8
					c-6,0.8-12.1,2.3-18.1,4.5c-6,2.3-11.3,5.3-15.8,9.8c-2.3,2.3-4.5,4.5-6,7.5s-3,5.3-3,8.3c3-5.3,6.8-9,12.1-12.1
					c4.5-3,9.8-4.5,15.8-6c3-0.8,5.3-0.8,8.3-0.8s5.3,0,8.3,0c5.3,0,11.3,0.8,16.6,1.5l34.7,5.3L249,427l9,1.5c3,0.8,6,0.8,8.3,1.5
					l2.3,0.8l2.3-0.8c14.3-6,29.4-11.3,43.7-17.3c26.4,12.8,52.8,25.6,79.1,37.7c13.6,6.8,27.9,12.8,41.5,18.8
					c14.3,6,27.9,12.8,42.2,18.8l2.3,0.8l2.3-0.8l15.1-3.8c4.5,1.5,9,3,12.8,4.5l15.1,6c9.8,3.8,20.4,8.3,30.2,12.1
					c9.8,4.5,19.6,9,29.4,13.6c4.5,2.3,9.8,5.3,14.3,8.3h0.8C599.5,528,598.8,526.5,598.8,525z"/>
			</g>
			<g id="XMLID_55_">
				<path id="XMLID_40_" class="st0" d="M576.9,383.2c-2.3-1.5-3.8-3-6-4.5c0,0,0,0-0.8-0.8c-3-1.5-5.3-3-8.3-4.5
					c-9.8-5.3-19.6-10.6-29.4-15.1c-5.3-2.3-9.8-4.5-15.1-6.8c-5.3-2.3-9.8-4.5-15.1-6.8l-1.5-0.8l-2.3,0.8l-14.3,3
					c-12.8-6.8-25.6-12.8-39.2-19.6s-27.1-13.6-41.5-20.4c-27.9-13.6-55-26.4-82.9-39.2l-3.8-1.5h-3c-15.1,6-30.2,12.8-45.2,19.6
					c-2.3,0-4.5-0.8-6-0.8l-9-0.8c-6-0.8-12.1-1.5-17.3-1.5l-17.3-1.5l-9-0.8c-3,0-6-0.8-9-0.8c-3,0-6,0-9,0c-3,0-6,0.8-9,0.8
					c-6,0.8-12.1,2.3-18.1,4.5s-11.3,5.3-15.8,9.8c-2.3,2.3-4.5,4.5-6,7.5s-3,5.3-3,8.3c3-5.3,6.8-9,12.1-12.1c4.5-3,9.8-4.5,15.8-6
					c3-0.8,5.3-0.8,8.3-0.8c3,0,5.3,0,8.3,0c5.3,0,11.3,0.8,16.6,1.5l34.7,5.3l17.3,2.3l9,1.5c3,0.8,6,0.8,8.3,1.5l2.3,0.8l2.3-0.8
					c14.3-6,29.4-11.3,43.7-17.3c26.4,12.8,52.8,25.6,79.1,37.7c13.6,6.8,27.9,12.8,41.5,18.8c14.3,6,27.9,12.8,42.2,18.8l2.3,0.8
					l2.3-0.8l15.1-3.8c4.5,1.5,9,3,12.8,4.5l15.1,6c9.8,3.8,20.4,8.3,30.2,12.1c9,3.8,18.1,8.3,27.1,12.8c-0.8-1.5-0.8-3-1.5-4.5
					C582.2,387.8,579.2,385.5,576.9,383.2z"/>
			</g>
			<g id="XMLID_53_">
				<path id="XMLID_38_" class="st0" d="M595,476.7c-3.8-3.8-8.3-6.8-12.8-9.8c-8.3-6-16.6-10.6-25.6-15.8
					c-8.3-5.3-17.3-9-26.4-13.6c-4.5-2.3-9-4.5-13.6-6c-4.5-2.3-9-3.8-13.6-5.3l-1.5-0.8h-2.3l-14.3,3c-13.6-6.8-26.4-12.8-40-19.6
					c-14.3-6.8-27.9-13.6-42.2-19.6c-27.9-12.8-56.5-25.6-85.2-38.4l-3.8-1.5l-3.8,1.5c-13.6,6-27.9,12.1-41.5,18.1
					c-3-0.8-6-0.8-9.8-1.5l-12.1-1.5c-8.3-0.8-15.8-1.5-24.1-2.3l-12.1-0.8l-6-0.8H203h-0.8h-0.8h-3c-3.8,0-8.3,0-12.1,0
					s-8.3,0-12.1,0c-3.8,0-8.3,0.8-12.1,0.8c-3.8,0-8.3,0.8-12.1,1.5c-3.8,0.8-8.3,1.5-12.1,2.3c-3.8,0.8-8.3,2.3-12.1,3.8
					c-7.5,3-15.1,6.8-21.9,12.1c-3,3-6,6-8.3,9.8c-2.3,3.8-3,7.5-3,12.1c0.8-3.8,2.3-7.5,4.5-10.6c2.3-3,5.3-5.3,8.3-7.5
					c6.8-4.5,13.6-6.8,21.1-9c3.8-0.8,7.5-1.5,11.3-2.3s7.5-0.8,11.3-0.8c3.8,0,7.5-0.8,12.1-0.8c3.8,0,7.5,0,12.1,0
					c3.8,0,7.5,0,12.1,0.8c3.8,0,7.5,0.8,12.1,0.8h3h0.8l0,0l0,0l0,0l0,0l0,0h1.5l6,0.8l12.1,1.5l24.1,3.8l12.1,1.5
					c3.8,0.8,8.3,1.5,11.3,1.5l2.3,0.8l2.3-0.8c13.6-5.3,27.1-10.6,40-15.8c27.1,12.8,54.3,24.9,81.4,36.9c14.3,6,28.6,12.8,43,18.8
					c14.3,6,28.6,12.1,43,18.1l2.3,0.8l2.3-0.8l15.1-3.8c3.8,1.5,7.5,2.3,12.1,3.8c4.5,1.5,9,3,13.6,4.5c9,3,18.1,6.8,27.1,10.6
					c9,3.8,18.1,7.5,26.4,12.1c5.3,3,10.6,6,15.1,9C595,479,595,478.2,595,476.7z"/>
			</g>
			<g id="XMLID_28_">
				<path id="XMLID_36_" class="st0" d="M587.4,433L587.4,433c-1.5-2.3-3-3-4.5-4.5s-3-3-4.5-4.5l-4.5-3.8l-5.3-3.8
					c-1.5-1.5-3-2.3-5.3-3.8c-3-2.3-6.8-4.5-10.6-6.8c-3.8-2.3-6.8-4.5-10.6-6c-3.8-2.3-7.5-3.8-11.3-6c-3.8-1.5-7.5-3.8-11.3-5.3
					s-7.5-3-11.3-4.5l-1.5-0.8l-2.3,0.8l-14.3,3c-13.6-6.8-27.1-12.8-40.7-18.8c-14.3-6.8-28.6-12.8-43-19.6
					c-28.6-12.8-57.3-25.6-86.7-37.7l-3.8-1.5l-3.8,1.5c-12.8,5.3-25.6,11.3-38.4,16.6c-3-0.8-6-0.8-9.8-1.5l-12.1-1.5
					c-8.3-0.8-15.8-1.5-24.1-2.3l-12.1-0.8l-6-0.8h-1.5h-0.8h-0.8h-3c-3.8,0-8.3,0-12.1,0c-3.8,0-8.3,0-12.1,0s-8.3,0.8-12.1,0.8
					s-8.3,0.8-12.1,1.5s-8.3,1.5-12.1,2.3c-3.8,0.8-8.3,2.3-12.1,3.8c-7.5,3-15.1,6.8-21.9,12.1c-3,3-6,6-8.3,9.8
					c-2.3,3.8-3,7.5-3,12.1c0.8-3.8,2.3-7.5,4.5-10.6c2.3-3,5.3-5.3,8.3-7.5c6.8-4.5,13.6-6.8,21.1-9c3.8-0.8,7.5-1.5,11.3-2.3
					c3.8-0.8,7.5-0.8,11.3-0.8s7.5-0.8,12.1-0.8c3.8,0,7.5,0,12.1,0c3.8,0,7.5,0,12.1,0.8c3.8,0,7.5,0.8,12.1,0.8h3h0.8l0,0l0,0l0,0
					l0,0h1.5l6,0.8l12.1,1.5l24.1,3.8l12.1,1.5c3.8,0.8,8.3,1.5,11.3,1.5l2.3,0.8l2.3-0.8c12.1-4.5,24.9-9.8,36.9-15.1
					c27.9,12.1,55,24.1,82.9,36.2c14.3,6,28.6,12.1,43.7,18.1c14.3,6,29.4,12.1,43.7,18.1l2.3,0.8l2.3-0.8l15.1-3.8c3,0.8,6,1.5,9,3
					c3.8,1.5,7.5,2.3,11.3,3.8c7.5,3,15.1,6,22.6,9c3.8,1.5,7.5,3,11.3,5.3c1.5,0.8,3.8,1.5,5.3,3l5.3,3l5.3,3
					c1.5,0.8,3.8,2.3,5.3,3c1.5,0.8,3.8,2.3,5.3,3L587.4,433C587.4,433.7,587.4,433.7,587.4,433z"/>
			</g>
			<g id="XMLID_11_">
				<g id="XMLID_118_">
					<path id="XMLID_34_" class="st0" d="M175.1,152.6c-4.5,1.5-9.8,3.8-10.6,3.8c-2.3,0.8-3.8,2.3-6,3c-0.8,0.8-2.3,1.5-3,2.3
						s-2.3,1.5-3.8,2.3c-2.3,1.5-4.5,3-6.8,4.5c-2.3,1.5-4.5,3.8-6.8,5.3c-0.8,0.8-2.3,1.5-3,3c-0.8,0.8-2.3,2.3-3,3
						c-2.3,2.3-3.8,3.8-6,6c-0.8,0.8-2.3,2.3-3,3c0,2.3,0,4.5,0.8,6.8c0,0,0,0,0.8,0c2.3-1.5,3.8-2.3,6-3.8c2.3-1.5,4.5-2.3,6.8-3.8
						c1.5-0.8,2.3-1.5,3.8-1.5c1.5-0.8,2.3-1.5,3.8-1.5c2.3-0.8,4.5-2.3,7.5-3c2.3-0.8,4.5-1.5,6.8-2.3c1.5,0,2.3-0.8,3.8-0.8
						c0.8,0,2.3-0.8,3-0.8c2.3-0.8,4.5-0.8,6-1.5c1.5,0,3.8-0.8,5.3-0.8c0.8,0,1.5,0,2.3,0h0.8h0.8c2.3,0,12.1,0,12.1,0l-7.5-21.9
						C184.2,151.1,180.4,151.1,175.1,152.6z"/>
				</g>
				<g id="XMLID_24_">
					<path id="XMLID_32_" class="st0" d="M292,204.6c0-0.8,0.8-1.5,0.8-2.3l0.8-19.6c0,0-3.8-14.3-31.7-24.9
						c-35.4-13.6-46.7-7.5-46.7-7.5l-9.8,20.4c0,0,17.3-1.5,43.7,6C276.1,184.2,292,204.6,292,204.6z"/>
				</g>
				<g id="XMLID_113_">
					<path id="XMLID_30_" class="st0" d="M173.6,114.1c-2.3,0.8-5.3,1.5-5.3,2.3c-2.3,0.8-3.8,1.5-6,3c-0.8,0.8-2.3,1.5-3,1.5
						c-0.8,0.8-2.3,1.5-3.8,2.3c-2.3,1.5-4.5,3-6.8,4.5c-2.3,1.5-4.5,3-6.8,4.5c-0.8,0.8-2.3,1.5-3,2.3s-2.3,1.5-3,2.3
						c-2.3,1.5-3.8,3.8-6,5.3c-1.5,1.5-2.3,2.3-3.8,3.8c0,2.3-0.8,4.5-0.8,6.8c0.8-0.8,1.5-0.8,2.3-1.5c2.3-1.5,3.8-2.3,6-3.8
						c2.3-1.5,4.5-2.3,6.8-3.8c1.5-0.8,2.3-0.8,3.8-1.5c1.5-0.8,2.3-0.8,3.8-1.5c2.3-0.8,4.5-2.3,7.5-3c2.3-0.8,4.5-1.5,6.8-2.3
						c1.5,0,2.3-0.8,3.8-0.8c0.8,0,2.3-0.8,3-0.8c2.3-0.8,3.8-0.8,6-1.5c1.5,0,3.8-0.8,5.3-0.8c0.8,0,0.8,0,1.5,0
						C178.1,125.4,175.9,120.2,173.6,114.1z"/>
				</g>
				<g id="XMLID_133_">
					<path id="XMLID_27_" class="st0" d="M292,136c-1.5-1.5-3-2.3-4.5-3c-1.5-0.8-3-2.3-5.3-3c-4.5-2.3-9.8-4.5-15.1-6.8
						c-0.8,0-0.8,0.8-1.5,0.8c0,0.8,0,0.8-0.8,1.5c-0.8,3-1.5,6-2.3,9v0.8c3.8,2.3,7.5,4.5,10.6,6.8c1.5,0.8,3,2.3,3.8,3
						c1.5,0.8,2.3,2.3,3.8,3c0.8,0.8,2.3,2.3,3,3c0.8,0.8,0.8,0.8,1.5,1.5c0.8,0.8,0.8,0.8,1.5,1.5c2.3,3,3.8,5.3,5.3,7.5
						c0.8,0,0.8,0.8,1.5,0.8h0.8c0.8,0,0.8,0,1.5-0.8c0,0,0,0,0-0.8l-1.5-21.9C294.2,139,293.5,137.5,292,136z"/>
				</g>
				<g id="XMLID_18_">
					<path id="XMLID_25_" class="st0" d="M164.6,87c-0.8,0-0.8,0.8-1.5,0.8c-2.3,1.5-4.5,3-6.8,4.5c-2.3,1.5-4.5,3-6.8,5.3
						c-0.8,0.8-2.3,1.5-3,2.3c-0.8,0.8-2.3,1.5-3,3c-0.8,0.8-2.3,2.3-3,3c-1.5,3.8-3,7.5-3.8,10.6c1.5-0.8,3.8-2.3,5.3-3
						c2.3-1.5,4.5-2.3,6.8-3.8c1.5-0.8,2.3-1.5,3.8-1.5c1.5-0.8,2.3-0.8,3.8-1.5c2.3-0.8,4.5-2.3,7.5-3c2.3-0.8,4.5-1.5,6.8-2.3h0.8
						C168.3,96.8,166.1,92.3,164.6,87z"/>
				</g>
				<g id="XMLID_15_">
					<path id="XMLID_22_" class="st0" d="M279.9,95.3c-1.5-0.8-3.8-0.8-5.3-1.5c-0.8,0-1.5,0-2.3-0.8c-0.8,1.5-0.8,3-1.5,5.3
						c-0.8,3.8-0.8,6.8-1.5,10.6v0.8c1.5,0.8,2.3,1.5,3.8,1.5c1.5,0.8,3,1.5,3.8,2.3c0.8,0,1.5,0.8,1.5,0.8c0.8,0.8,1.5,0.8,1.5,1.5
						c4.5,3,11.3,7.5,11.3,7.5l-9.8-25.6C282.2,97.6,281.4,96,279.9,95.3z"/>
				</g>
				<g id="XMLID_13_">
					<path id="XMLID_20_" class="st0" d="M248.2,130c0,0-12.1-3-24.9-3.8c-12.8-0.8-25.6,0-25.6,0l6-17.3c0,0,9-3,20.4-2.3
						c11.3,0.8,19.6,4.5,19.6,4.5L248.2,130z"/>
				</g>
				<g id="XMLID_12_">
					<path id="XMLID_17_" class="st0" d="M241.5,96c0,0-8.3-2.3-18.1-2.3c-9.8-0.8-18.8,0-18.8,0L209,81c0,0,6.8-2.3,14.3-1.5
						c8.3,0,14.3,3,14.3,3L241.5,96z"/>
				</g>
			</g>
			<g id="XMLID_9_">
				<path id="XMLID_10_" class="st0" d="M285.9,214.4c-1.5-0.8-3-2.3-5.3-4.5c-4.5-3-10.6-6.8-18.8-10.6c-3.8-1.5-8.3-3-12.8-4.5
					c-4.5-0.8-9.8-2.3-14.3-2.3c-5.3-0.8-10.6-0.8-15.1-0.8c-5.3,0-10.6,0.8-15.8,0.8c-5.3,0.8-10.6,1.5-15.1,2.3s-9.8,2.3-14.3,3.8
					c-14.3,6-25.6,15.1-32.4,21.1l0.8,0.8c12.8-7.5,45.2-22.6,88.9-11.3c24.9,6,41.5,21.1,41.5,21.1l15.1-15.1
					C288.2,216.7,287.4,215.9,285.9,214.4z"/>
			</g>
			<g id="XMLID_35_">
				<path id="XMLID_37_" class="st0" d="M266.3,248.3c-0.8-0.8-2.3-2.3-4.5-3.8c-3.8-3-9.8-6-16.6-8.3c-3.8-1.5-6.8-2.3-11.3-3
					c-3.8-0.8-8.3-1.5-12.1-1.5c-4.5,0-8.3,0-12.8,0c-4.5,0-9,0.8-13.6,1.5c-4.5,0.8-8.3,1.5-12.8,3c-3.8,1.5-8.3,3-12.1,4.5
					c-11.3,6-21.1,15.1-26.4,20.4l0.8,0.8c10.6-7.5,36.9-22.6,74.6-15.1c21.1,4.5,36.2,17.3,36.2,17.3l12.1-14.3
					C268.6,250.6,267.8,249.8,266.3,248.3z"/>
			</g>
		</g>
	</g>
</g>
</svg>