<svg version="1.1" id="Слой_2" xmlns="http://www.w3.org/2000/svg" xmlns:xlink="http://www.w3.org/1999/xlink" x="0px" y="0px"
	 viewBox="-183 35 32 32" style="enable-background:new -183 35 32 32;" xml:space="preserve">
<g id="XMLID_16_">
	<path id="XMLID_17_" d="M-177.5,38v12.6h-3.2v-6.8c0-1,0-1.6-0.1-1.8c0-0.2-0.2-0.3-0.4-0.4s-0.7-0.2-1.4-0.2h-0.3V40
		c1.5-0.3,2.7-1,3.5-2H-177.5z"/>
	<path id="XMLID_19_" d="M-168.8,42.3v4.2c0,1-0.1,1.7-0.2,2.1c-0.1,0.4-0.3,0.8-0.6,1.2c-0.3,0.4-0.7,0.7-1.2,0.8
		c-0.5,0.2-1,0.3-1.6,0.3c-0.8,0-1.4-0.1-1.9-0.3s-0.9-0.4-1.2-0.8c-0.3-0.4-0.5-0.8-0.6-1.2c-0.1-0.4-0.2-1.1-0.2-1.9v-4.4
		c0-1.2,0.1-2,0.3-2.6c0.2-0.6,0.6-1,1.2-1.4c0.6-0.3,1.3-0.5,2.2-0.5c0.7,0,1.3,0.1,1.9,0.4s1,0.5,1.2,0.9c0.3,0.3,0.5,0.7,0.6,1.2
		C-168.8,40.6-168.8,41.3-168.8,42.3z M-171.9,41.2c0-0.7,0-1.1-0.1-1.3c-0.1-0.2-0.2-0.3-0.5-0.3c-0.2,0-0.4,0.1-0.5,0.3
		c-0.1,0.2-0.1,0.6-0.1,1.2v6.2c0,0.7,0,1.2,0.1,1.3c0.1,0.2,0.2,0.2,0.5,0.2s0.4-0.1,0.5-0.3c0.1-0.2,0.1-0.6,0.1-1.2V41.2z"/>
	<path id="XMLID_22_" d="M-160.2,42.3v4.2c0,1-0.1,1.7-0.2,2.1s-0.3,0.8-0.6,1.2c-0.3,0.4-0.7,0.7-1.2,0.8s-1,0.3-1.6,0.3
		c-0.8,0-1.4-0.1-1.9-0.3s-0.9-0.4-1.2-0.8c-0.3-0.4-0.5-0.8-0.6-1.2c-0.1-0.4-0.2-1.1-0.2-1.9v-4.4c0-1.2,0.1-2,0.3-2.6
		c0.2-0.6,0.6-1,1.2-1.4c0.6-0.3,1.3-0.5,2.2-0.5c0.7,0,1.3,0.1,1.9,0.4s1,0.5,1.2,0.9c0.3,0.3,0.5,0.7,0.6,1.2
		S-160.2,41.3-160.2,42.3z M-163.4,41.2c0-0.7,0-1.1-0.1-1.3c-0.1-0.2-0.2-0.3-0.5-0.3c-0.2,0-0.4,0.1-0.5,0.3
		c-0.1,0.2-0.1,0.6-0.1,1.2v6.2c0,0.7,0,1.2,0.1,1.3c0.1,0.2,0.2,0.2,0.5,0.2s0.4-0.1,0.5-0.3c0.1-0.2,0.1-0.6,0.1-1.2V41.2z"/>
	<path id="XMLID_25_" d="M-159.1,43.4h2.8v-2.8h1.9v2.8h2.8v1.9h-2.8v2.8h-1.9v-2.8h-2.8V43.4z"/>
</g>
<g id="XMLID_3_">
	<path id="XMLID_6_" d="M-177.1,54l-0.7,6.8c-0.1,1.1-0.2,1.8-0.4,2.3s-0.4,0.7-0.8,0.9c-0.4,0.2-1,0.3-1.9,0.3h-1.6V63h0.2
		c0.4,0,0.6,0,0.7-0.1c0.1-0.1,0.1-0.1,0.1-0.3c0,0-0.1-0.3-0.2-0.9L-183,54h2.3l0.8,6.4l0.4-6.4H-177.1z"/>
	<path id="XMLID_8_" d="M-170.3,58.5h-2.7v-1.8c0-0.5,0-0.8-0.1-1c-0.1-0.1-0.2-0.2-0.4-0.2c-0.2,0-0.4,0.1-0.4,0.2
		c-0.1,0.2-0.1,0.5-0.1,1v4.8c0,0.5,0,0.8,0.1,1s0.2,0.2,0.4,0.2c0.2,0,0.3-0.1,0.4-0.2c0.1-0.2,0.1-0.5,0.1-1.1v-1.3h2.7v0.4
		c0,1.1-0.1,1.8-0.2,2.3c-0.2,0.4-0.5,0.8-1,1.2c-0.5,0.3-1.1,0.5-1.9,0.5c-0.8,0-1.4-0.1-1.9-0.4c-0.5-0.3-0.8-0.7-1-1.2
		c-0.2-0.5-0.2-1.3-0.2-2.3v-3c0-0.7,0-1.3,0.1-1.7s0.2-0.7,0.5-1.1c0.3-0.3,0.6-0.6,1-0.8c0.4-0.2,1-0.3,1.5-0.3
		c0.8,0,1.4,0.2,1.9,0.5c0.5,0.3,0.8,0.7,1,1.1c0.2,0.5,0.2,1.2,0.2,2.1V58.5z"/>
	<path id="XMLID_10_" d="M-162.8,64.3h-2.7v-8.2h-0.8v5.8c0,0.8-0.1,1.3-0.3,1.7c-0.2,0.3-0.5,0.5-0.9,0.6c-0.4,0.1-1,0.1-1.9,0.1
		h-0.4v-1.8c0.3,0,0.6,0,0.7-0.1c0.1-0.1,0.2-0.4,0.2-0.8V54h6.1V64.3z"/>
	<path id="XMLID_12_" d="M-156.5,54l-0.7,6.8c-0.1,1.1-0.2,1.8-0.4,2.3s-0.4,0.7-0.8,0.9c-0.4,0.2-1,0.3-1.9,0.3h-1.6V63h0.2
		c0.4,0,0.6,0,0.7-0.1c0.1-0.1,0.1-0.1,0.1-0.3c0,0-0.1-0.3-0.2-0.9l-1.4-7.7h2.3l0.8,6.4l0.4-6.4H-156.5z"/>
	<path id="XMLID_14_" d="M-151.3,56.1h-2v8.2h-2.7V54h4.6V56.1z"/>
</g>
</svg>