<svg version="1.1" id="Слой_1" xmlns="http://www.w3.org/2000/svg" xmlns:xlink="http://www.w3.org/1999/xlink" x="0px" y="0px"
	 viewBox="241 -205 511 511" style="enable-background:new 241 -205 511 511;" xml:space="preserve">
<style type="text/css">
	.st0{fill:#FFF;}
</style>
<g id="surface1">
	<path class="st0" d="M488.7,301.7L282.5,182.6c-4.6-2.7-7.5-7.6-7.5-13V-68.6c0-5.4,2.8-10.3,7.5-13l206.2-119.1
		c4.6-2.7,10.3-2.7,15,0l206,119.1c4.6,2.7,7.3,7.6,7.3,13v238.2c0,5.4-2.7,10.3-7.3,13L503.6,301.7
		C498.9,304.4,493.3,304.4,488.7,301.7z M312.4,165.3l176.3,101.8c4.6,2.7,10.3,2.7,15,0l176.1-101.8c4.6-2.7,7.3-7.6,7.3-13V-51.3
		c0-5.4-2.6-10.3-7.3-13L503.5-166.1c-4.6-2.7-10.3-2.7-14.9,0L312.4-64.3c-4.6,2.7-7.4,7.6-7.4,13v203.6
		C305,157.7,307.8,162.6,312.4,165.3z"/>
	<path class="st0" d="M379,101.4l-40.3-40.3c-5.8-5.8-5.8-15.3,0-21.2L379-0.3c5.8-5.8,15.3-5.9,21.2,0l0,0c5.8,5.8,5.8,15.3,0,21.2
		L381,39.9c-5.9,5.8-5.9,15.3,0,21.2l19.1,19.1c5.9,5.8,5.9,15.3,0,21.2l0,0C394.3,107.2,384.8,107.2,379,101.4z"/>
	<path class="st0" d="M592.2,101.4L592.2,101.4c-5.9-5.9-5.9-15.3,0-21.2l19.1-19.1c5.8-5.8,5.8-15.3,0-21.2l-19.1-19.1
		c-5.8-5.8-5.8-15.3,0-21.2l0,0c5.8-5.9,15.3-5.9,21.2,0l40.3,40.3c5.8,5.8,5.8,15.3,0,21.2l-40.3,40.3
		C607.5,107.2,598,107.2,592.2,101.4z"/>
	<path class="st0" d="M531.4-20L531.4-20c7.4,3.7,10.4,12.7,6.7,20.1L481,114.3c-3.7,7.4-12.7,10.4-20.1,6.7l0,0
		c-7.4-3.7-10.4-12.7-6.7-20.1l57.1-114.3C515-20.7,524-23.7,531.4-20z"/>
</g>
</svg>
