<svg version="1.1" id="Слой_1" xmlns="http://www.w3.org/2000/svg" xmlns:xlink="http://www.w3.org/1999/xlink" x="0px" y="0px"
	 viewBox="241 -205 511 511" style="enable-background:new 241 -205 511 511;" xml:space="preserve">
<style type="text/css">
	.st0{fill:#FFF;}
</style>
<rect x="407" y="-56" class="st0" width="29.6" height="217"/>
<rect x="480.9" y="-56" class="st0" width="29.6" height="217"/>
<rect x="352.9" y="204.7" class="st0" width="287.2" height="29.6"/>
<rect x="427.5" y="-125.3" class="st0" width="138.1" height="29.6"/>
<rect x="337" y="-183" class="st0" width="319" height="29"/>
<rect x="281" y="262" class="st0" width="431" height="29"/>
<rect x="560" y="-56" class="st0" width="30" height="217"/>
<path class="st0" d="M338.6-69.4c-31.4,0-57-25.6-57-57s25.6-57,57-57s57,25.6,57,57S370-69.4,338.6-69.4z M338.6-152.4
	c-14.3,0-26,11.7-26,26s11.7,26,26,26s26-11.7,26-26S352.9-152.4,338.6-152.4z"/>
<path class="st0" d="M655.6-69.4c-31.4,0-57-25.6-57-57s25.6-57,57-57s57,25.6,57,57S687-69.4,655.6-69.4z M655.6-152.4
	c-14.3,0-26,11.7-26,26s11.7,26,26,26s26-11.7,26-26S669.9-152.4,655.6-152.4z"/>
</svg>
