<svg version="1.1" id="Слой_1" xmlns="http://www.w3.org/2000/svg" xmlns:xlink="http://www.w3.org/1999/xlink" x="0px" y="0px"
	 viewBox="241 -205 511 511" style="enable-background:new 241 -205 511 511;" xml:space="preserve">
<style type="text/css">
	.st0{fill:#FFF;}
</style>
<path class="st0" d="M750.8-103.2c-2.4-5.7-8-9.5-14.2-9.5l-76,0l0-76c0-6.2-3.7-11.8-9.5-14.2c-5.7-2.4-12.3-1.1-16.7,3.3
	l-50.9,50.9c-42-20-90-27.5-136.4-21c-51.9,7.2-98.9,30.7-136.1,67.8C265.9-56.5,241,3.6,241,67.6c0,64,24.9,124.1,70.1,169.3
	c45.2,45.2,105.3,70.1,169.3,70.1h0c63.9,0,124.1-24.9,169.3-70.1c37.1-37.1,60.6-84.2,67.8-136.1c6.5-46.4-1-94.3-21-136.4
	l50.9-50.9C751.9-90.9,753.2-97.5,750.8-103.2z M505.9,93c-6.8,6.8-15.9,10.6-25.5,10.6c-9.6,0-18.7-3.8-25.5-10.6
	c-6.8-6.8-10.6-15.9-10.6-25.5c0-9.6,3.8-18.7,10.6-25.5c7-7,16.3-10.5,25.5-10.5c4.1,0,8.3,0.7,12.2,2.1l-23,23.1
	c-6,6-6,15.7,0,21.7c3,3,6.9,4.5,10.8,4.5c3.9,0,7.8-1.5,10.8-4.5l23.1-23.1C518.9,68.1,516.1,82.9,505.9,93z M515.5,10.8
	C489.8-5,455.6-1.9,433.3,20.4c-12.6,12.6-19.5,29.3-19.5,47.1c0,17.8,6.9,34.6,19.5,47.1c12.6,12.6,29.3,19.5,47.1,19.5
	c17.8,0,34.6-6.9,47.1-19.5c22.3-22.3,25.4-56.5,9.6-82.2l40.6-40.6c37.6,48.3,34.2,118.4-10.2,162.8c-48,48-126.2,48-174.3,0
	c-48-48-48-126.2,0-174.3c24-24,55.6-36,87.1-36c26.7,0,53.5,8.6,75.6,25.9L515.5,10.8z M628.1,215.2c-81.4,81.4-213.9,81.4-295.3,0
	c-81.4-81.4-81.4-213.9,0-295.3C372.7-120,426.7-141,481-141c27.9,0,55.9,5.5,82.2,16.8c0,0.2-0.1,0.4-0.1,0.6c0,0.1,0,0.3-0.1,0.4
	c0,0.5-0.1,0.9-0.1,1.4l0,59.5c-59.5-37.9-139.5-30.9-191.4,21c-60,60-60,157.6,0,217.6c30,30,69.4,45,108.8,45
	c39.4,0,78.8-15,108.8-45c51.9-51.9,58.9-131.9,21-191.4l59.5,0c0.5,0,0.9,0,1.4-0.1c0.1,0,0.3,0,0.4-0.1c0.2,0,0.4,0,0.6-0.1
	C705.5,62.3,688.5,154.7,628.1,215.2z M663.4-45.7l-69.7,0l0-69.6l36.3-36.3l0,54.3c0,8.5,6.9,15.3,15.3,15.3l54.3,0L663.4-45.7z"/>
</svg>