<svg version="1.1" id="Слой_1" xmlns="http://www.w3.org/2000/svg" xmlns:xlink="http://www.w3.org/1999/xlink" x="0px" y="0px"
	 viewBox="0 0 100 100" style="enable-background:new 0 0 100 100;" xml:space="preserve">
<g id="XMLID_20_">
	<path id="XMLID_43_" d="M12.8,69.2c-0.2-8.2,6.8-16,16.1-15.8c8.4,0.1,15.8,7.3,15.6,16.2c-0.2,8.6-7.3,15.8-16,15.6
		C19,85.1,12.6,77.1,12.8,69.2z M28.8,55.1c-7.1-0.3-14.3,5.6-14.3,14.1c0,8.2,6.7,14.2,14.2,14.2c7.2,0,14.2-5.6,14.2-14.2
		C42.9,60.6,35.7,54.9,28.8,55.1z"/>
	<path id="XMLID_40_" d="M28.6,46.6c-8.4,0.2-16-6.8-15.9-16c0.1-8.2,6.5-15.8,15.9-15.8c9.1,0,15.9,7.2,15.9,15.9
		C44.5,40.3,36.7,46.8,28.6,46.6z M28.6,44.9c7.2,0.3,14.2-5.8,14.2-14.1c0-7.7-6.2-14.3-14.2-14.3c-8.2,0-14.2,6.8-14.3,14.2
		C14.4,38.6,21,45.1,28.6,44.9z"/>
	<path id="XMLID_37_" d="M87.3,30.9c0.1,8.3-6.6,16-16,15.9c-8.4-0.1-15.7-6.7-15.7-15.9c0-9.3,7.6-16.1,16.2-16
		C80.3,15,87.3,22.2,87.3,30.9z M85.6,30.9c0.2-7.7-6.3-14.1-13.7-14.3c-7.7-0.2-14.6,5.9-14.6,14.2c0,7.7,6.4,14.2,14,14.2
		C79.5,45.2,85.8,38.2,85.6,30.9z"/>
	<path id="XMLID_34_" d="M71.3,85c-8.2,0.1-15.9-6.6-15.9-15.9c0-8.8,6.9-15.9,15.9-15.9c9,0,16,7.2,15.9,16.1
		C87.2,78.4,79.7,85.1,71.3,85z M71.3,83.3c7.4,0.2,14.2-6.1,14.2-14.1c0.1-7.5-6.1-14.3-14.1-14.3c-7.9,0-14.2,6.3-14.3,14.2
		C57.1,77.4,64.1,83.5,71.3,83.3z"/>
	<path id="XMLID_28_" d="M28.7,63.7c2.4,0,4.8,0,7.1,0c1.2,0,1.4,0.2,1.4,1.4c0,2.8,0,5.6,0,8.4c0,1.1-0.2,1.4-1.4,1.4
		c-4.8,0-9.5,0-14.3,0c-1.1,0-1.3-0.1-1.3-1.2c0-2.9,0-5.8,0-8.6c0-1.1,0.1-1.2,1.3-1.2C23.9,63.7,26.3,63.7,28.7,63.7z M28.7,64.5
		c-1.9,0-3.8,0-5.6,0c-0.2,0-0.3,0.1-0.5,0.2c0.1,0.2,0.1,0.4,0.3,0.5c1.8,1.6,3.5,3.2,5.3,4.8c0.4,0.3,0.7,0.3,1.1,0
		c1.7-1.6,3.5-3.1,5.2-4.7c0.1-0.1,0.2-0.4,0.3-0.5c-0.2-0.1-0.4-0.2-0.6-0.2C32.3,64.5,30.5,64.5,28.7,64.5z M28.5,74.1
		C28.5,74.1,28.5,74.1,28.5,74.1c2,0,4.1,0,6.1,0c0.2,0,0.4-0.1,0.7-0.2c-0.1-0.2-0.2-0.4-0.3-0.5c-1.1-1-2.2-2-3.3-3.1
		c-0.3-0.3-0.6-0.3-0.9,0c-0.5,0.4-1,0.8-1.5,1.3c-0.5,0.5-0.9,0.5-1.4,0c-0.3-0.4-0.7-0.7-1.1-1.1c-0.5-0.5-0.9-0.6-1.4-0.1
		c-1,0.9-2,1.8-3.1,2.8c-0.2,0.2-0.3,0.5-0.4,0.7c0.3,0.1,0.5,0.2,0.8,0.2C24.7,74.1,26.6,74.1,28.5,74.1z M36.4,69.3
		C36.4,69.3,36.4,69.3,36.4,69.3c0-1.1,0-2.1,0-3.2c0-0.6-0.3-0.7-0.7-0.3c-1.1,1-2.1,2-3.2,3c-0.4,0.4-0.3,0.7,0.1,1
		c1,0.9,2,1.9,3,2.8c0.2,0.2,0.4,0.2,0.6,0.3c0.1-0.2,0.2-0.4,0.2-0.7C36.4,71.3,36.4,70.3,36.4,69.3z M21,69.2
		C21,69.2,21,69.2,21,69.2c0,1,0,2,0,3c0,0.3,0.1,0.5,0.2,0.8c0.2-0.1,0.5-0.2,0.7-0.3c1-1,2-1.9,3.1-2.9c0.3-0.3,0.4-0.6,0-0.9
		c-1.1-1-2.1-2-3.2-3c-0.1-0.1-0.4-0.1-0.6-0.2C21.1,65.8,21,66,21,66.2C21,67.2,21,68.2,21,69.2z"/>
	<path id="XMLID_5_" d="M36.1,36.2c0,0.4,0,0.8,0,1.2c0,0.6-0.3,0.9-1,0.8c-3.1-0.4-5.8-1.5-8.3-3.4c-3.5-2.6-5.3-6.2-5.8-10.5
		c-0.1-0.8,0.2-1.2,1-1.2c0.7,0,1.4,0,2.2,0c0.6,0,0.9,0.3,1,0.9c0.2,1.1,0.4,2.2,0.6,3.2c0.1,0.5-0.2,0.7-0.6,0.8
		c-0.7,0.1-0.8,0.5-0.4,1c1.5,2.2,3.4,4.1,5.6,5.6c0.5,0.3,0.9,0.3,1-0.4c0.1-0.6,0.4-0.7,0.9-0.6c0.8,0.2,1.7,0.3,2.5,0.4
		c1.2,0.2,1.3,0.3,1.3,1.6C36.1,35.8,36.1,36,36.1,36.2C36.1,36.2,36.1,36.2,36.1,36.2z"/>
	<path id="XMLID_24_" d="M71.1,39.3c-4,0-7.7-2.5-7.8-7.4c-0.2-5.7,4.1-9.5,8.8-9.5c2.2,0,4.2,0.5,5.8,2.2c2,2.1,2.4,5.7,1,8.2
		c-0.8,1.4-2,2.2-3.7,2.2c-0.9,0-1.5-0.3-1.9-1.2c-0.2-0.7-0.4-0.5-0.9-0.1c-0.5,0.5-1.2,1-1.9,1.2c-1.7,0.5-3.1-0.5-3.4-2.2
		c-0.4-2.6,1.2-5.2,3.7-6c1.2-0.4,2.5-0.4,3.7-0.1c0.7,0.2,1,0.5,0.8,1.2c-0.2,1.3-0.5,2.6-0.6,3.9c-0.1,0.7-0.3,1.4,0.5,1.9
		c0.6,0.3,1.4-0.1,2-0.9c2.3-3.1,0.4-8.2-3.4-9c-4.8-1.1-8.8,2.4-9,6.8c-0.1,2,0.1,3.9,1.5,5.5c1.7,1.9,3.9,2.3,6.3,2
		c0.5-0.1,1-0.2,1.5-0.4c0.3-0.1,0.6-0.2,0.8,0.2c0.1,0.4,0.1,0.7-0.4,0.8C73.4,38.8,72.2,39,71.1,39.3z M73.1,29.2
		c0-1.1-0.1-1.3-1-1.2c-1.9,0.1-3.5,2.7-2.8,4.5c0.4,0.8,1.4,1.1,2.1,0.5c0.5-0.4,0.9-1,1.2-1.7C73,30.6,73,29.7,73.1,29.2z"/>
	<path id="XMLID_21_" d="M76.2,69.1c0,2.2,0,4.4,0,6.6c0,1.3-0.3,1.8-1.6,1.8c-2.2,0.1-4.4,0.1-6.6,0c-1,0-1.4-0.6-1.4-1.6
		c0-4.5,0-9,0-13.5c0-1.1,0.5-1.6,1.6-1.6c2.1,0,4.3,0,6.4,0c1.1,0,1.6,0.5,1.6,1.6C76.2,64.6,76.2,66.8,76.2,69.1z M75.2,68.1
		c0-1.8,0-3.6,0-5.4c0-1,0-1-1-1c-1.9,0-3.8,0-5.7,0c-0.9,0-1,0-1,1c0,3.5,0,7.1,0,10.6c0,1.2,0.5,1.7,1.6,1.7c1.5,0,2.9,0,4.4,0
		c1.2,0,1.6-0.5,1.6-1.7C75.2,71.6,75.2,69.8,75.2,68.1z"/>
</g>
</svg>
