<svg version="1.1" id="Слой_1" xmlns="http://www.w3.org/2000/svg" xmlns:xlink="http://www.w3.org/1999/xlink" x="0px" y="0px"
	 viewBox="0 0 100 100" style="enable-background:new 0 0 100 100;" xml:space="preserve">
<style type="text/css">
	.st0{fill:none;stroke:#000000;stroke-width:2;stroke-miterlimit:10;}
</style>
<g id="XMLID_8_">
	<path id="XMLID_6_" d="M65.6,70.1c-1.4,1.3-2.8,2.6-4.2,3.7c-1.1,0.9-2.5,0.8-3.9,0.5c-1.6-0.4-3.1-1.2-4.4-2.2
		C45.2,66,39.2,58.3,34.8,49.3c-1.7-3.4-3.1-6.9-4.2-10.6c-0.9-3-0.1-5.2,2.6-6.8c1.1-0.6,2.2-1,3.4-1.5c0.5-0.2,0.8-0.1,1.1,0.4
		c1.7,3.3,3.5,6.6,5.2,9.9c0.4,0.8,0.3,1.1-0.5,1.6c-0.4,0.2-0.8,0.3-1.2,0.5c-0.8,0.3-1,0.7-0.8,1.6c0.1,0.6,0.4,1.2,0.6,1.8
		c2.6,6.2,6.3,11.5,11.5,15.8c0.3,0.2,0.6,0.5,1,0.6c0.6,0.3,1.2,0.2,1.7-0.4c0.3-0.3,0.5-0.6,0.8-0.9c0.7-0.6,1-0.6,1.6,0
		c1.5,1.6,2.9,3.1,4.4,4.7C63.1,67.4,64.3,68.7,65.6,70.1z"/>
	<path id="XMLID_5_" d="M67,55c0.1-1.9,0.4-3.6,0.4-5.4c-0.1-6.8-5.2-12.9-11.9-14.6c-0.5-0.1-0.9-0.2-1.4-0.3
		c-0.1,0-0.4-0.1-0.4-0.2c0.1-0.6,0.1-1.3,0.3-1.9c0-0.1,0.6-0.2,0.9-0.2c3.4,0.6,6.4,2.1,8.9,4.4c4,3.7,6,8.2,6,13.6
		c0,1.4-0.4,2.8-0.5,4.2c-0.1,0.6-0.3,0.8-1,0.6C67.8,55.2,67.3,55.1,67,55z"/>
	<path id="XMLID_4_" d="M64.9,50.6c-0.1,0.9-0.3,2.1-0.5,3.2c-0.2,0.8-0.5,0.9-1.2,0.8c-1.4-0.3-1.4-0.3-1.1-1.7
		c1.4-6-2.7-12.1-8.9-13c-0.9-0.1-0.9-0.2-0.8-1.1c0-0.2,0.1-0.3,0.1-0.5c0.2-0.8,0.4-1,1.2-0.9c5.3,0.6,10.2,5.5,11,10.8
		C64.7,48.8,64.8,49.5,64.9,50.6z"/>
	<path id="XMLID_3_" d="M60,50.4c-0.1,0.5-0.3,1.5-0.5,2.5c-0.1,0.5-0.5,0.8-1.1,0.6c0,0,0,0-0.1,0c-1.5-0.2-1.5-0.2-1.1-1.7
		c0.8-3.5-1.5-6.9-5.2-7.3c-0.8-0.1-0.9-0.2-0.7-1.1c0.1-0.2,0.1-0.5,0.2-0.7c0.1-0.6,0.4-0.8,1-0.7C56.7,42.5,59.6,45.6,60,50.4z"
		/>
	<path id="XMLID_2_" d="M67.7,67.6c0,0.8-0.4,1.2-0.9,1.5c-0.5,0.2-1,0.1-1.4-0.3c-2.4-2.6-4.8-5.2-7.2-7.8
		c-0.5-0.6-0.5-1.3,0.2-1.8c0.6-0.5,1.3-0.5,1.8,0.1c2.4,2.6,4.8,5.2,7.2,7.8C67.6,67.2,67.7,67.5,67.7,67.6z"/>
	<path id="XMLID_1_" d="M40.2,29.2c0.2,0.1,0.6,0.4,0.8,0.7c1.7,3.1,3.3,6.3,4.9,9.4c0.4,0.7,0.1,1.4-0.7,1.8
		c-0.7,0.3-1.3,0.2-1.7-0.5c-1.6-3.1-3.3-6.3-4.9-9.4C38.2,30.2,39,29.2,40.2,29.2z"/>
</g>

</svg>
