<svg version="1.1" id="Слой_1" xmlns="http://www.w3.org/2000/svg" xmlns:xlink="http://www.w3.org/1999/xlink" x="0px" y="0px"
	 viewBox="0 0 100 100" style="enable-background:new 0 0 100 100;" xml:space="preserve">
<g id="XMLID_16_">
	<path id="XMLID_30_" d="M18.3,50c0-10.1,0-20.2,0-30.4c0-1.3,0.1-2.5,0.6-3.7c1.4-3.1,3.8-4.6,7.2-4.8c0.2,0,0.5,0,0.7,0
		c11.7,0,23.4,0,35.1,0c2.6,0,4.9,0.8,6.7,2.7c3.4,3.4,6.8,6.8,10.3,10.1c1.9,1.8,2.8,4,2.8,6.6c0,16.8,0,33.5,0,50.3
		c0,4.2-2.7,6.9-5.4,7.7c-0.8,0.2-1.6,0.4-2.4,0.4c-15.9,0-31.8,0-47.7,0c-4.3,0-7.6-3.3-7.8-7.6c0-0.4,0-0.9,0-1.3
		C18.3,70,18.3,60,18.3,50z M20.9,50c0,10.2,0,20.4,0,30.6c0,3.8,2.9,5.7,5.7,5.7c15.6-0.1,31.1,0,46.7,0c0.5,0,0.9,0,1.4-0.1
		c2.9-0.6,4.3-3,4.3-5.5c0-16.7,0-33.4,0-50.1c0-2-0.6-3.5-2.1-4.9c-3.4-3.3-6.8-6.6-10.1-9.9c-1.4-1.5-3.1-2.1-5.1-2.1
		c-10.9,0.1-21.9,0-32.8,0c-0.9,0-1.9,0-2.8,0c-0.9,0-1.7,0.2-2.5,0.6c-1.9,1.1-2.7,2.8-2.7,5C21,29.6,20.9,39.8,20.9,50z"/>
	<path id="XMLID_24_" d="M54.8,46c1.8-0.1,3.4-0.3,5-0.3c1.2,0,2.5,0.1,3.7,0.3c0.7,0.1,1.4,0.5,2,0.9c1.3,1,1,2.9-0.6,3.5
		c-1,0.4-2.1,0.3-3.1,0.1c-2.1-0.4-3.9-1.3-5.6-2.5c-0.5-0.4-1-0.8-1.6-1.2c-3.1,0.5-6.2,1.4-9.1,2.3c-1.1,1.6-2,3.1-3.1,4.6
		c-0.9,1.3-2,2.6-3.4,3.5c-0.6,0.4-1.4,0.8-2.1,1c-0.5,0.1-1.2,0.1-1.7-0.1c-1.5-0.4-2-1.8-1.1-3c0.6-0.9,1.4-1.7,2.3-2.3
		c1.7-1.1,3.5-1.9,5.2-2.9c0.4-0.2,0.8-0.3,1.2-0.5c2.1-3.7,3.6-7.7,5-11.6c-0.4-1.3-0.9-2.5-1.2-3.7c-0.3-1.3-0.5-2.6-0.6-3.9
		c-0.1-0.6,0.1-1.3,0.3-1.8c0.5-1.8,2.5-2.2,3.8-0.9c0.7,0.7,0.9,1.5,1,2.4c0.2,1.7,0,3.4-0.4,5.1c-0.3,1.4-0.7,2.8-1.1,4.3
		C51,41.8,52.7,44,54.8,46z M46.1,48.2c2.7-0.7,5.2-1.4,7.8-2c-1.5-2-3-3.9-4.5-5.8C48.3,42.9,47.2,45.5,46.1,48.2z M42.1,50.6
		c-2.2,0.9-4.3,1.8-6.1,3.3c-0.5,0.4-1,1-1.4,1.6c-0.4,0.6-0.4,1.1,0,1.6c0.4,0.4,1,0.6,1.6,0.3c0.5-0.2,1-0.5,1.4-0.9
		C39.5,54.9,40.9,52.8,42.1,50.6z M55.5,46.7c1.8,1.5,3.5,2.5,5.5,3c0.5,0.1,1.1,0.2,1.6,0.1c1-0.1,1.5-0.8,1.6-1.6
		c0-0.8-0.5-1.4-1.4-1.6C60.4,46,58.1,46.2,55.5,46.7z M48.2,36.4c0.8-2.1,1.3-4.3,1.5-6.6c0-0.5-0.1-1.1-0.2-1.6
		c-0.1-0.5-0.5-0.9-1.1-0.9c-0.6,0-1,0.2-1.2,0.7c-0.2,0.5-0.4,1-0.4,1.5C46.5,32,47.2,34.2,48.2,36.4z"/>
	<path id="XMLID_21_" d="M46.7,77.7c0-3.8,0-7.5,0-11.3c1.6-0.2,3.1-0.3,4.6,0.1c1.5,0.4,2.5,1.4,3,2.8c0.6,1.8,0.6,3.5-0.1,5.3
		c-0.7,1.8-2.1,2.9-4.1,3.1C49.1,77.8,48,77.7,46.7,77.7z M48.6,75.9c2,0.3,3.2-0.4,3.8-1.9c0.5-1.3,0.5-2.6,0.1-3.9
		c-0.5-1.7-2.1-2.5-3.9-1.9C48.6,70.7,48.6,73.3,48.6,75.9z"/>
	<path id="XMLID_18_" d="M38,66.4c1.4-0.2,2.7-0.3,4,0c1.7,0.3,2.7,1.5,2.8,3.1c0.1,1.9-0.7,3.3-2.4,3.8c-0.8,0.2-1.6,0.3-2.6,0.4
		c0,1.2-0.1,2.5-0.1,3.9c-0.6,0-1.2,0-1.8,0C38,73.9,38,70.2,38,66.4z M39.9,71.8c1.4,0.2,2.3,0,2.8-0.8c0.4-0.7,0.4-1.7-0.1-2.3
		c-0.7-0.9-1.7-0.8-2.7-0.6C39.9,69.4,39.9,70.6,39.9,71.8z"/>
	<path id="XMLID_3_" d="M58.7,68c0,1.2,0,2.1,0,3.2c1.2,0,2.4,0,3.7,0c0,0.6,0,1.1,0,1.7c-1.2,0-2.4,0-3.7,0c0,1.6,0,3.1,0,4.7
		c-0.7,0-1.2,0-1.7,0c-0.2-0.9-0.3-10.1,0-11.4c1.9,0,3.8,0,5.8,0c0.1,0.5,0.1,1.1,0.2,1.7C61.5,68,60.2,68,58.7,68z"/>
</g>
</svg>
