<svg version="1.1" id="Слой_3" xmlns="http://www.w3.org/2000/svg" xmlns:xlink="http://www.w3.org/1999/xlink" x="0px" y="0px"
	 viewBox="0 0 500 500" style="enable-background:new 0 0 500 500;" xml:space="preserve">
<g id="XMLID_11_">
	<path id="XMLID_9_" d="M1,243.4c1.8-9.9,6.8-18.6,9.8-28c2.7-8.3,6.5-11.9,17.5-9.8c5.3,1,10.5,2.4,15.7,3.4
		c2.4,0.4,4.9,0.4,7.3,0.2c3.4-0.3,5.9-2.2,8-4.8c2.9-3.4,6-6.6,9-9.9c1.5-1.6,3.1-3.2,4.7-4.9c3.5-3.8,4.6-8.2,3.1-13.2
		c-1.6-5.7-3.3-11.4-4.9-17.1c-0.3-1-0.4-2-0.6-3c-0.9-6.6,1.8-11.1,7.9-13.7c6.8-2.9,13.5-6.2,20.3-9.2c2.7-1.2,5.6-2.2,8.5-3
		c3.5-1,6.6,0.1,9.1,2.7c1.7,1.8,3.3,3.8,4.7,5.8c3.4,4.9,6.6,9.9,10,14.8c2.5,3.7,6,5.5,10.5,5.2c2.4-0.2,4.9-0.3,7.3-0.5
		c5.6-0.3,11.2-0.8,16.9-0.9c2.9,0,4.9-1,6.3-3.5c2.7-4.7,5.3-9.5,8.1-14.2c1.8-3,3.7-6,5.9-8.7c2.9-3.6,6.6-5,11.3-3.1
		c9.6,3.8,19.3,7.3,28.9,11c4.5,1.7,6.5,5.3,6.6,10.1c0.1,5.5-1.9,10.5-2.9,15.8c-0.7,3.7-1.3,7.6-1.4,11.4c-0.2,3.5,1.5,6.5,4.1,9
		c4.1,3.8,8.4,7.5,12.3,11.6c5.6,5.9,12,7.4,19.7,4.6c5.1-1.9,10.5-3.4,15.8-4.5c6.1-1.3,11.1,1.1,13.7,6.7
		c4.3,9.2,8.1,18.5,12.2,27.7c1.8,4,0.9,7.7-2,10.6c-2.7,2.7-5.8,5-8.9,7.2c-2.6,1.9-5.5,3.3-8.1,5.1c-2,1.4-4,3-5.8,4.7
		c-2.1,2-3.1,4.6-2.9,7.7c0.3,3.9,0.5,7.8,0.6,11.7c0.1,3.5-0.1,7-0.3,10.5c-0.3,3.7,1.2,6.6,4.1,8.8c1.7,1.3,3.6,2.5,5.5,3.5
		c3.5,2,7.1,3.8,10.6,5.9c1.9,1.1,3.7,2.5,5.5,3.8c4.1,3.2,5.6,7.1,4.2,12.3c-2.6,9.7-6.2,18.9-9.9,28.2c-2.7,6.7-7.3,8.1-13.3,7.5
		c-4.1-0.4-8.2-1.5-12.3-2.2c-3.9-0.7-7.8-1.5-11.7-2.1c-2.8-0.4-5.2,0.6-7.2,2.4c-1.3,1.1-2.4,2.3-3.6,3.5c-3.6,3.9-7,8-10.8,11.7
		c-4.3,4.1-5.5,8.8-4,14.3c1.6,5.8,3.2,11.6,4.6,17.4c0.6,2.5,0.7,5.2,0.7,7.8c0,2.5-1.4,4.5-3.4,6c-1,0.7-2,1.4-3.1,2
		c-8.1,3.9-16.3,7.7-24.5,11.6c-1.3,0.6-2.8,1-4.2,1.4c-4.4,1.4-8.2,0.4-11.1-3.2c-2.9-3.5-5.5-7.3-8.1-11c-1.9-2.8-3.7-5.7-5.6-8.5
		c-2.4-3.8-6-5.6-10.4-5.4c-4.5,0.2-8.9,0.6-13.4,0.9c-1.6,0.1-3.2,0.2-4.7-0.2c-3.8-0.9-7.3-0.4-10.1,2.1c-2.4,2.1-4.6,4.7-6.3,7.4
		c-2.4,3.8-4.3,7.8-6.4,11.8c-5.1,9.6-9.7,11.4-19.9,7.6c-7.2-2.7-14.5-5.4-21.7-8.2c-8.4-3.2-11-7.8-9.3-16.7
		c1.2-6.2,2.3-12.4,3.5-18.7c1-5.6-0.8-9.9-5.3-13.4c-4-3.2-7.8-6.8-11.3-10.6c-4.7-5.1-10-6.4-16.5-4.5c-6.4,1.9-12.8,3.6-19.3,5.2
		c-5.8,1.4-8.8,0.1-12-4.9c-0.5-0.8-1-1.5-1.4-2.3c-3.7-8-7.5-16-11.2-24c-0.6-1.3-1-2.8-1.4-4.2c-1-3.7-0.2-7,2.4-9.8
		c1.6-1.6,3.4-3,5.2-4.2c4.8-3.3,9.7-6.5,14.6-9.7c5-3.2,6.4-7.6,5.8-13.3c-0.7-6.8-0.9-13.7-1-20.5c0-4.3-1.6-7.3-5.4-9.4
		c-5.4-3-10.8-6.2-16.2-9.2c-4.4-2.4-8.1-5.3-8.9-10.7C1,244.4,1,243.9,1,243.4z M153.7,217.1c-35.4-1.4-62.2,31.4-63,64.7
		c-0.7,29,22.5,64.7,66.2,64.7c33.9,0,62.9-28.7,63.7-63.5C221.3,251.8,196.9,215.6,153.7,217.1z"/>
	<path id="XMLID_8_" d="M477.8,221.1c-0.5,3.5-1.9,6.3-3.8,8.8c-1.5,2-3.2,4-4.8,6c-1.8,2.3-2.4,4.8-1.1,7.7c1.5,3.4,2.9,7,4.2,10.5
		c1,2.8,2.9,4.5,5.7,5.1c3.6,0.7,7.3,1.3,10.9,2c3.6,0.7,7.4,1.9,7.7,6c0.5,6.7,0.3,13.4,0.1,20.1c-0.1,2.7-2.1,4.6-4.7,5.2
		c-3.3,0.8-6.6,1.6-10,1.8c-5.2,0.3-8.5,2.7-10.5,7.3c-1.3,3.1-2.5,6.2-3.7,9.3c-1.1,2.8-0.7,5.5,0.8,7.9c1.7,2.7,3.6,5.2,5.5,7.6
		c4.5,5.7,4.4,8.2-0.8,13.4c-3.4,3.4-6.8,6.6-10.2,9.9c-3.9,3.6-5.6,3.7-10.1,0.7c-3.4-2.2-6.7-4.5-10-6.8c-2.7-1.9-5.3-2-8.2-0.5
		c-3,1.6-6.2,2.8-9.4,3.9c-3.2,1-5.1,3.1-5.7,6.3c-0.7,3.7-1.2,7.4-1.9,11.2c-1,5.6-3.2,7.4-8.9,7.4c-5.5-0.1-11-0.1-16.5-0.5
		c-3.6-0.2-5-1.6-5.7-5.1c-0.9-4.6-1.8-9.3-2.6-13.9c-0.5-2.8-2.1-4.4-4.9-5.3c-2.7-0.8-5.3-2-7.8-3.3c-4.5-2.3-8.8-1.9-12.9,0.8
		c-2.2,1.5-4.3,3.2-6.4,4.9c-4.7,3.5-7.6,3.6-11.8-0.3c-4.1-3.9-7.8-8.1-11.4-12.4c-2.5-2.9-2.3-6.1,0-9.1c2.2-3,4.3-6.1,6.6-9
		c1.9-2.4,2.2-5,1.2-7.8c-1.7-4.4-3.4-8.7-5.1-13c-0.8-2.1-2.5-3.1-4.5-3.5c-4.3-1-8.6-1.8-13-2.6c-4.6-0.8-5.8-2-6.1-6.6
		c-0.3-5.7-0.4-11.4-0.4-17.1c0-3.9,1.9-6.4,5.8-7.4c3.2-0.8,6.5-1.2,9.8-1.6c4.4-0.4,7.7-2.2,9.5-6.4c1.6-3.9,3.2-7.8,4.5-11.8
		c1-3-0.2-5.6-2.1-8c-1.9-2.4-3.6-4.8-5.4-7.3c-2.6-3.8-2.6-7.3,0.3-10.9c1.7-2.1,3.8-4,5.9-5.7c2.9-2.4,5.9-4.7,8.9-7
		c2.2-1.6,3.2-1.5,5.4,0c3.6,2.6,7.2,5.2,10.8,7.7c3.3,2.3,6.6,2.5,10.2,0.5c2.8-1.5,5.8-2.6,8.9-3.6c3.1-1,4.6-3.1,5.1-6.3
		c0.6-3.6,1.2-7.2,1.9-10.8c1.1-5.5,3.1-7.1,8.7-7.2c5.4-0.1,10.8,0,16.1,0c3.3,0,5.1,1,6,4.2c0.9,3.2,1.4,6.5,2,9.8
		c0.2,1.1,0.3,2.3,0.5,3.4c0.4,2.9,1.8,5.3,4.5,6.5c4.5,2,9,3.9,13.6,5.6c2.2,0.8,4.3-0.1,6.2-1.3c2.1-1.3,4-2.9,6.1-4.3
		c1.5-1,2.9-2.1,4.5-2.9c2.7-1.3,5.3-1.2,7.6,1.1c4.3,4.3,8.6,8.6,12.8,12.9C476.7,218.3,477.1,219.8,477.8,221.1z M363.7,276.4
		c-1.6,21.3,16.3,38,36.9,39.3c20.7,1.3,39.2-15.6,40.2-37.5c1-22.7-16-38.5-37-39.7C383.8,237.3,362.9,253.4,363.7,276.4z"/>
	<path id="XMLID_7_" d="M346.2,80.3c-1.7,4.5,1.3,7.3,5.8,9.3c1.3,0.6,2.6,1.4,3.9,2.1c2.9,1.7,5.6,1.3,8.3-0.4
		c1.2-0.8,2.4-1.7,3.7-2.5c2.2-1.4,4.2-1.6,6,0.2c3.2,3.4,6.3,7.1,8.9,11c1.4,2.2,0.3,4.9-1.4,6.9c-0.6,0.7-1.3,1.3-2,1.7
		c-4,2.3-4.7,5.8-4,9.9c0.4,2.1,0.9,4.2,1.4,6.4c0.4,1.7,1.4,2.9,3.1,3.4c2.4,0.8,4.9,1.5,7.3,2.3c3.7,1.2,4.5,2.1,4.3,5.9
		c-0.2,3.6-0.3,7.2-0.9,10.7c-0.7,4.3-2.7,5.9-7.1,6.1c-2.6,0.2-5.3-0.1-7.9,0c-0.7,0-1.6,0.3-1.9,0.8c-2,2.9-3.9,5.9-5.8,8.8
		c-1.3,2-1.2,4.1,0,6.2c1,1.7,2,3.3,3,4.9c2.1,3.6,1.8,6.3-1.5,8.8c-3.2,2.4-6.6,4.7-10.1,6.6c-2.7,1.5-4.4,0.8-6-1.8
		c-3.1-5.3-6.1-7-13.7-5.4c-7.7,1.6-7.7,1.7-10,9.2c-0.2,0.6-0.3,1.1-0.5,1.7c-0.6,1.6-0.2,4-2.9,4.4c-1.8,0.2-3.6,1-5.3,0.9
		c-2.9-0.1-5.9-0.6-8.7-1.1c-4.3-0.8-5.8-2.9-5.6-7.3c0.1-1.3,0.2-2.7,0.2-4c0-1-0.1-2.1-0.4-3c-1.5-4.6-5.7-6.2-9.5-8
		c-3-1.4-5.8-0.7-8.4,1.3c-1.1,0.8-2.3,1.6-3.6,2.2c-2.2,1.1-4.4,0.9-6.3-0.7c-4-3.3-6.6-7.6-8.6-12.3c-0.4-1,0.2-2.8,0.9-3.9
		c1.1-1.7,2.6-3.1,4.2-4.5c3-2.6,4.1-5.5,2.6-9.4c-0.8-2.1-1.1-4.3-1.6-6.5c-0.4-1.6-1.3-2.6-2.8-3.1c-2.3-0.7-4.5-1.4-6.8-2.2
		c-4.1-1.4-5.6-3.4-5.2-7.6c0.4-4.2,1.3-8.3,2.1-12.5c0.1-0.6,1-1.3,1.7-1.3c2.8-0.3,5.6-0.7,8.4-0.6c3.5,0.2,6.1-1.1,7.8-4.1
		c1.2-2,2.5-3.9,3.5-6c1.5-3.1,1.1-6.1-0.9-8.9c-0.7-1-1.5-2.1-2.2-3.1c-1.3-1.9-1.4-3.9,0.1-5.7c3.4-4.2,7.6-7.2,12.7-9
		c2.7-0.9,4.7-0.3,6.1,2.3c2.8,5.2,6.9,6.4,12.4,5.4c6-1.1,9-3.5,10.5-9.4c0.2-0.7,0.3-1.4,0.5-2c1-3.5,2.7-5,6.4-5.3
		c5.5-0.4,10.5,1.4,15.1,4.1c0.5,0.3,0.8,1.1,0.8,1.7C346.3,75.7,346.2,77.6,346.2,80.3z M300.1,133.5c0,15.6,10.8,26.1,26.8,26.1
		c15.6,0,25.7-11.1,25.7-28.4c0-12.7-12.7-24.8-26-24.8C314.3,106.4,298.9,117.1,300.1,133.5z"/>
</g>
</svg>