<svg version="1.1" id="Слой_4" xmlns="http://www.w3.org/2000/svg" xmlns:xlink="http://www.w3.org/1999/xlink" x="0px" y="0px"
	 viewBox="-183 35 32 32" style="enable-background:new -183 35 32 32;" xml:space="preserve">
<g id="Layer_1">
</g>
<g>
	<path d="M-176.7,44.8h-1.3v-1.3h-3.3v1.3h-1.3V42h0.4c0.3-0.4,0.5-1,0.6-1.8s0.2-1.8,0.2-2.9v-0.2h4.3V42h0.4V44.8z M-179.1,42
		v-3.5h-0.5v0.1c0,1.2-0.2,2.3-0.6,3.4H-179.1z"/>
	<path d="M-171.3,43.5h-1.7V40l-1.4,3.5h-1.8v-6.5h1.7v3.5l1.3-3.5h1.8V43.5z"/>
	<path d="M-168.6,37.1l0,0.6c0.2-0.2,0.4-0.4,0.6-0.5c0.2-0.1,0.4-0.2,0.7-0.2c0.3,0,0.6,0.1,0.8,0.2s0.4,0.4,0.4,0.6
		s0.1,0.6,0.1,1.1v2.7c0,0.6,0,1-0.1,1.3s-0.2,0.4-0.4,0.6s-0.5,0.2-0.8,0.2c-0.2,0-0.5-0.1-0.7-0.2c-0.2-0.1-0.4-0.3-0.6-0.5v1.5
		h-2v-7.4H-168.6z M-168,38.9c0-0.4,0-0.6,0-0.7s-0.1-0.1-0.2-0.1c-0.1,0-0.2,0-0.3,0.1s-0.1,0.3-0.1,0.7v2.7c0,0.4,0,0.6,0.1,0.7
		s0.1,0.1,0.3,0.1c0.1,0,0.2,0,0.2-0.1s0-0.3,0-0.7V38.9z"/>
	<path d="M-160.9,40.4h-2.6v1.4c0,0.3,0,0.5,0.1,0.6c0,0.1,0.1,0.1,0.2,0.1c0.1,0,0.3-0.1,0.3-0.2s0.1-0.3,0.1-0.7v-0.9h1.9v0.5
		c0,0.4,0,0.7-0.1,0.9s-0.2,0.4-0.4,0.7s-0.4,0.4-0.7,0.5s-0.6,0.2-1.1,0.2c-0.4,0-0.8-0.1-1.1-0.2c-0.3-0.1-0.6-0.3-0.7-0.5
		s-0.3-0.4-0.4-0.7s-0.1-0.6-0.1-1.1v-1.9c0-0.6,0.1-1,0.2-1.3c0.2-0.3,0.4-0.6,0.8-0.8c0.3-0.2,0.7-0.3,1.2-0.3
		c0.6,0,1,0.1,1.4,0.3s0.6,0.5,0.8,0.8s0.2,0.8,0.2,1.5V40.4z M-162.9,39.4v-0.5c0-0.3,0-0.6-0.1-0.6c0-0.1-0.1-0.1-0.2-0.1
		c-0.1,0-0.2,0-0.3,0.1c0,0.1,0,0.3,0,0.7v0.5H-162.9z"/>
	<path d="M-158.3,37.1v2.5c0.4,0,0.6-0.2,0.6-0.7v-1.1c0-0.4,0.1-0.7,0.2-0.8h1.9c-0.1,0.2-0.2,0.5-0.2,0.9v0.9
		c0,0.3-0.1,0.6-0.4,0.8c-0.1,0.1-0.3,0.2-0.6,0.3c-0.2,0.1-0.4,0.1-0.7,0.2c0.1,0,0.3,0.1,0.6,0.2c0.7,0.2,1,0.6,1,1.1v1.1
		c0,0.4,0.1,0.7,0.2,0.9h-1.9c-0.1-0.2-0.2-0.5-0.2-0.8v-1.4c0-0.4-0.2-0.7-0.6-0.7v2.8h-1.9v-6.5H-158.3z"/>
	<path d="M-151.3,37.1v1.4h-1.1v5.1h-2v-5.1h-1.1v-1.4H-151.3z"/>
</g>
<g>
	<path d="M-174,46.8l1.5,10.3h-2.7l-0.1-1.8h-1l-0.2,1.8h-2.8l1.4-10.3H-174z M-175.5,53.4c-0.1-1.2-0.3-2.6-0.4-4.3
		c-0.3,2-0.4,3.4-0.5,4.3H-175.5z"/>
	<path d="M-172.1,46.8h2c1.3,0,2.2,0.1,2.6,0.2c0.5,0.1,0.8,0.3,1,0.6s0.4,0.6,0.4,0.9c0.1,0.3,0.1,1,0.1,2V54c0,0.9,0,1.5-0.1,1.8
		c-0.1,0.3-0.2,0.6-0.5,0.7s-0.5,0.3-0.8,0.4c-0.3,0.1-0.8,0.1-1.4,0.1h-3.4V46.8z M-169.4,48.5v6.8c0.4,0,0.6-0.1,0.7-0.2
		c0.1-0.2,0.1-0.6,0.1-1.3v-4c0-0.5,0-0.8,0-0.9s-0.1-0.2-0.2-0.3C-168.9,48.5-169.1,48.5-169.4,48.5z"/>
	<path d="M-154.8,46.8L-156,57h-3.3c-0.3-1.6-0.6-3.4-0.8-5.4c-0.1,0.9-0.4,2.7-0.7,5.4h-3.3l-1.2-10.3h2.6l0.3,3.6l0.3,3.5
		c0.1-1.8,0.3-4.1,0.7-7.1h2.8c0,0.3,0.1,1.4,0.3,3.4l0.3,3.9c0.2-2.5,0.4-4.9,0.7-7.3H-154.8z"/>
</g>
<g>
	<path d="M-179.4,61.6h-1.2v-0.2c0-0.2,0-0.3,0-0.4c0-0.1-0.1-0.1-0.2-0.1c-0.1,0-0.1,0-0.2,0.1c0,0.1-0.1,0.1-0.1,0.2
		c0,0.1,0,0.2,0,0.3c0,0.1,0.1,0.1,0.2,0.2c0.1,0.1,0.3,0.2,0.6,0.3c0.4,0.2,0.7,0.4,0.8,0.6c0.1,0.2,0.2,0.4,0.2,0.8
		c0,0.4,0,0.6-0.1,0.8c-0.1,0.2-0.3,0.3-0.5,0.4c-0.2,0.1-0.5,0.2-0.8,0.2c-0.4,0-0.7-0.1-0.9-0.2c-0.3-0.1-0.4-0.3-0.5-0.4
		c-0.1-0.2-0.1-0.5-0.1-0.8v-0.2h1.2v0.3c0,0.2,0,0.4,0,0.5c0,0.1,0.1,0.1,0.2,0.1c0.1,0,0.2,0,0.2-0.1s0.1-0.2,0.1-0.3
		c0-0.2,0-0.4-0.1-0.4c-0.1-0.1-0.3-0.2-0.8-0.5c-0.4-0.2-0.7-0.4-0.7-0.6c-0.1-0.2-0.1-0.4-0.1-0.7c0-0.4,0-0.6,0.1-0.8
		c0.1-0.2,0.3-0.3,0.5-0.4c0.2-0.1,0.5-0.1,0.8-0.1c0.3,0,0.6,0,0.8,0.1c0.2,0.1,0.4,0.2,0.5,0.3c0.1,0.1,0.2,0.2,0.2,0.3
		c0,0.1,0,0.3,0,0.5V61.6z"/>
	<path d="M-177.6,60.2l0,0.4c0.1-0.2,0.2-0.3,0.4-0.4c0.1-0.1,0.3-0.1,0.5-0.1c0.4,0,0.7,0.2,0.9,0.5c0.1-0.2,0.2-0.3,0.4-0.4
		c0.1-0.1,0.3-0.1,0.5-0.1c0.2,0,0.4,0.1,0.6,0.2c0.2,0.1,0.3,0.3,0.3,0.4s0.1,0.4,0.1,0.8v3.2h-1.3v-3c0-0.4,0-0.6,0-0.7
		c0-0.1-0.1-0.1-0.2-0.1c-0.1,0-0.2,0-0.2,0.1c0,0.1,0,0.3,0,0.7v3h-1.3v-2.9c0-0.4,0-0.7,0-0.8c0-0.1-0.1-0.1-0.2-0.1
		c-0.1,0-0.1,0-0.2,0.1c0,0-0.1,0.1-0.1,0.2c0,0.1,0,0.2,0,0.4v3.1h-1.3v-4.5H-177.6z"/>
	<path d="M-172.2,60.2l0,0.4c0.1-0.2,0.2-0.3,0.4-0.4c0.1-0.1,0.3-0.1,0.5-0.1c0.4,0,0.7,0.2,0.9,0.5c0.1-0.2,0.2-0.3,0.4-0.4
		c0.1-0.1,0.3-0.1,0.5-0.1c0.2,0,0.4,0.1,0.6,0.2c0.2,0.1,0.3,0.3,0.3,0.4s0.1,0.4,0.1,0.8v3.2h-1.3v-3c0-0.4,0-0.6,0-0.7
		c0-0.1-0.1-0.1-0.2-0.1c-0.1,0-0.2,0-0.2,0.1c0,0.1,0,0.3,0,0.7v3h-1.3v-2.9c0-0.4,0-0.7,0-0.8c0-0.1-0.1-0.1-0.2-0.1
		c-0.1,0-0.1,0-0.2,0.1c0,0-0.1,0.1-0.1,0.2c0,0.1,0,0.2,0,0.4v3.1h-1.3v-4.5H-172.2z"/>
	<path d="M-166.9,59.2h2.4v1.1h-1v1h0.9v1.1h-0.9v1.2h1.1v1.1h-2.5V59.2z"/>
	<path d="M-162.7,60.2l0,0.4c0.1-0.2,0.2-0.3,0.4-0.4c0.1-0.1,0.3-0.1,0.5-0.1c0.4,0,0.7,0.2,0.9,0.5c0.1-0.2,0.2-0.3,0.4-0.4
		c0.1-0.1,0.3-0.1,0.5-0.1c0.2,0,0.4,0.1,0.6,0.2c0.2,0.1,0.3,0.3,0.3,0.4c0,0.2,0.1,0.4,0.1,0.8v3.2h-1.3v-3c0-0.4,0-0.6,0-0.7
		c0-0.1-0.1-0.1-0.2-0.1c-0.1,0-0.2,0-0.2,0.1c0,0.1,0,0.3,0,0.7v3h-1.3v-2.9c0-0.4,0-0.7,0-0.8c0-0.1-0.1-0.1-0.2-0.1
		c-0.1,0-0.1,0-0.2,0.1c0,0-0.1,0.1-0.1,0.2c0,0.1,0,0.2,0,0.4v3.1h-1.3v-4.5H-162.7z"/>
	<path d="M-157.4,61.9h-1.3v-0.3c0-0.4,0-0.6,0.1-0.8c0.1-0.2,0.2-0.4,0.5-0.5c0.2-0.1,0.6-0.2,1-0.2c0.5,0,0.8,0.1,1.1,0.2
		s0.4,0.4,0.4,0.6c0,0.2,0.1,0.7,0.1,1.5v2.3h-1.3v-0.4c-0.1,0.2-0.2,0.3-0.3,0.4s-0.3,0.1-0.5,0.1c-0.2,0-0.5-0.1-0.7-0.2
		c-0.2-0.1-0.3-0.4-0.3-0.9v-0.4c0-0.3,0.1-0.6,0.2-0.7s0.4-0.3,0.8-0.4c0.5-0.2,0.7-0.3,0.7-0.4s0-0.2,0-0.4c0-0.2,0-0.4-0.1-0.5
		c0-0.1-0.1-0.1-0.2-0.1c-0.1,0-0.2,0-0.2,0.1c0,0.1,0,0.2,0,0.5V61.9z M-156.9,62.6c-0.2,0.2-0.3,0.3-0.4,0.4s-0.1,0.3-0.1,0.5
		c0,0.2,0,0.4,0,0.5c0,0.1,0.1,0.1,0.2,0.1c0.1,0,0.1,0,0.2-0.1c0-0.1,0-0.2,0-0.4V62.6z"/>
	<path d="M-153.7,59.2v0.7h-1.4v-0.7H-153.7z M-153.7,60.2v4.5h-1.4v-4.5H-153.7z"/>
	<path d="M-151.8,59.2v5.5h-1.4v-5.5H-151.8z"/>
</g>
</svg>
