<svg version="1.1" id="Слой_1" xmlns="http://www.w3.org/2000/svg" xmlns:xlink="http://www.w3.org/1999/xlink" x="0px" y="0px"
	 viewBox="241 -206 512 512" style="enable-background:new 241 -206 512 512;" xml:space="preserve">
<style type="text/css">
	.st0{fill:#FFF;}
</style>
<path class="st0" d="M725.3,9.4c-6-4.9-15.1-12.4-16.1-16.3c-1.2-4.3,2.9-15.3,5.9-23.3c5.8-15.5,12.3-33,3.7-47.9
	C710-93.1,691.4-96.2,674.9-99c-7.8-1.3-19.7-3.3-22.7-6.3c-3-3-5-14.8-6.3-22.7c-2.7-16.4-5.8-35-20.9-43.8
	c-14.9-8.6-32.5-2.1-47.9,3.7c-8,3-18.9,7.1-23.3,5.9c-3.9-1-11.3-10.1-16.3-16.1c-10.7-13-22.8-27.7-40.6-27.7
	s-29.9,14.7-40.6,27.7c-4.9,6-12.4,15.1-16.3,16.1c-4.3,1.2-15.3-2.9-23.3-5.9c-15.5-5.8-33-12.3-47.9-3.7
	c-15.1,8.7-18.2,27.4-20.9,43.8c-1.3,7.8-3.3,19.7-6.3,22.7c-3,3-14.8,5-22.7,6.3c-16.4,2.7-35,5.8-43.8,20.9
	c-8.6,14.9-2.1,32.5,3.7,47.9c3,8,7.1,18.9,5.9,23.3c-1,3.9-10.1,11.3-16.1,16.3C255.7,20.1,241,32.2,241,50s14.7,29.9,27.7,40.6
	c6,4.9,15.1,12.4,16.1,16.3c1.2,4.3-2.9,15.3-5.9,23.3c-5.8,15.5-12.3,33-3.7,47.9c8.7,15.1,27.4,18.2,43.8,20.9
	c7.8,1.3,19.7,3.3,22.7,6.3c3,3,5,14.8,6.3,22.7c2.7,16.4,5.8,35,20.9,43.8c14.9,8.6,32.5,2.1,47.9-3.7c8-3,18.9-7.1,23.3-5.9
	c3.9,1,11.3,10.1,16.3,16.1c10.7,13,22.8,27.7,40.6,27.7s29.9-14.7,40.6-27.7c4.9-6,12.4-15.1,16.3-16.1c4.3-1.2,15.3,2.9,23.3,5.9
	c15.5,5.8,33,12.3,47.9,3.7c15.1-8.7,18.2-27.4,20.9-43.8c1.3-7.8,3.3-19.7,6.3-22.7c3-3,14.8-5,22.7-6.3c16.4-2.7,35-5.8,43.8-20.9
	c8.6-14.9,2.1-32.5-3.7-47.9c-3-8-7.1-18.9-5.9-23.3c1-3.9,10.1-11.3,16.1-16.3C738.3,79.9,753,67.8,753,50S738.3,20.1,725.3,9.4z
	 M706.5,67.8c-11,9.1-22.4,18.4-25.9,31.5c-3.6,13.5,1.7,27.6,6.8,41.2c2.4,6.4,7.3,19.7,5.8,22.8c-1.8,3-16.7,5.5-23.1,6.6
	c-14.3,2.4-29,4.8-38.7,14.5c-9.7,9.7-12.2,24.5-14.5,38.7c-1.1,6.4-3.5,21.3-6.6,23.1c0,0-1.5,0.6-6.2-0.4
	c-4.8-1-10.6-3.2-16.6-5.4c-13.6-5.1-27.8-10.3-41.2-6.8c-13,3.5-22.4,14.9-31.4,25.9c-4.5,5.5-13.9,17-17.8,17s-13.2-11.5-17.8-17
	c-9.1-11-18.4-22.4-31.5-25.9c-3.1-0.8-6.2-1.2-9.4-1.2c-10.5,0-21.3,4-31.8,7.9c-6.4,2.4-19.7,7.3-22.8,5.8
	c-3-1.8-5.5-16.7-6.6-23.1c-2.4-14.3-4.8-29-14.5-38.7c-9.7-9.7-24.5-12.2-38.7-14.5c-6.4-1.1-21.3-3.5-23.1-6.6
	c0,0-0.6-1.5,0.4-6.2c1-4.8,3.2-10.6,5.4-16.6c5.1-13.6,10.3-27.8,6.8-41.2c-3.5-13-14.9-22.4-25.9-31.4c-5.5-4.5-17-13.9-17-17.8
	s11.5-13.2,17-17.8c11-9.1,22.4-18.4,25.9-31.5c3.6-13.5-1.7-27.6-6.8-41.2c-2.4-6.4-7.3-19.7-5.8-22.8c1.8-3,16.7-5.5,23.1-6.6
	c14.3-2.4,29-4.8,38.7-14.5c9.7-9.7,12.2-24.5,14.5-38.7c1.1-6.4,3.5-21.3,6.6-23.1c0,0,1.5-0.6,6.2,0.4c4.8,1,10.6,3.2,16.6,5.4
	c13.6,5.1,27.8,10.3,41.2,6.8c13-3.5,22.4-14.9,31.4-25.9c4.5-5.5,13.9-17,17.8-17s13.2,11.5,17.8,17c9.1,11,18.4,22.4,31.5,25.9
	c13.5,3.6,27.6-1.7,41.2-6.8c6.4-2.4,19.7-7.3,22.8-5.8c3,1.8,5.5,16.7,6.6,23.1c2.4,14.3,4.8,29,14.5,38.7
	c9.7,9.7,24.5,12.2,38.7,14.5c6.4,1.1,21.3,3.5,23.1,6.6c0,0,0.6,1.5-0.4,6.2c-1,4.8-3.2,10.6-5.4,16.6
	c-5.1,13.6-10.3,27.8-6.8,41.2c3.5,13,14.9,22.4,25.9,31.4c5.5,4.5,17,13.9,17,17.8S712,63.2,706.5,67.8z"/>
<path class="st0" d="M585.8-38.8c-5.8-5.8-15.1-5.8-20.9,0L408.2,117.9c-5.8,5.8-5.8,15.1,0,20.9c2.9,2.9,6.7,4.3,10.4,4.3
	c3.8,0,7.6-1.4,10.4-4.3L585.8-17.9C591.5-23.6,591.5-33,585.8-38.8z"/>
<path class="st0" d="M436.1,31.5c23.4,0,42.5-19.1,42.5-42.5c0-23.4-19.1-42.5-42.5-42.5c-23.4,0-42.5,19-42.5,42.5
	C393.6,12.5,412.7,31.5,436.1,31.5z M436.1-23.8c7.1,0,12.9,5.8,12.9,12.9S443.2,2,436.1,2s-12.9-5.8-12.9-12.9S429-23.8,436.1-23.8
	z"/>
<path class="st0" d="M557.9,68.5c-23.4,0-42.5,19.1-42.5,42.5c0,23.4,19.1,42.5,42.5,42.5c23.4,0,42.5-19,42.5-42.5
	C600.4,87.5,581.3,68.5,557.9,68.5z M557.9,123.8c-7.1,0-12.9-5.8-12.9-12.9S550.8,98,557.9,98s12.9,5.8,12.9,12.9
	S565,123.8,557.9,123.8z"/>
</svg>
