<svg version="1.1" id="Слой_7" xmlns="http://www.w3.org/2000/svg" xmlns:xlink="http://www.w3.org/1999/xlink" x="0px" y="0px"
	 viewBox="0 0 700 700" style="enable-background:new 0 0 700 700;" xml:space="preserve">
<style type="text/css">
	.st0{fill:none;stroke:#FFFFFF;stroke-width:15;stroke-miterlimit:10;}
</style>
<g>
	<path class="st0" d="M360,583.6c35,0,70,0,105,0c1.9,0,3.2,0.5,4.6,1.9c18.2,18.3,36.5,36.5,54.7,54.8c1.4,1.4,2.1,1.4,3.5,0
		c37.6-37.7,75.3-75.4,113.1-113.1c1.4-1.4,1.4-2.1,0-3.5c-36.4-36.4-72.8-72.8-109.2-109.2c-18.7-18.7-41-29.9-67.1-33.7
		c-5.1-0.7-10.3-1-15.5-1c-47-0.1-94.1-0.1-141.1,0c-22.1,0-39.8,14.9-43.8,36.7c-4.1,22.7,12.6,46.1,35.5,49.8
		c3.2,0.5,6.4,0.7,9.6,0.7c23,0.1,45.9,0,68.9,0.1c2.4,0,5,0.2,7.3,1c6.4,2.2,10.3,9,9.3,15.6c-1,7-6.6,12.2-13.6,12.6
		c-1,0.1-2,0.1-3.1,0.1c-37.3,0-74.7,0-112,0c-1.9,0-3.2-0.6-4.6-1.9c-43.5-43.6-87.1-87.1-130.6-130.7
		c-6.5-6.5-14.1-10.9-23.2-12.6c-21.8-4.2-44.1,11.4-47.5,33.3c-2.2,14.3,1.7,26.7,12,36.9c48.1,48.2,96.3,96.3,144.5,144.5
		c11.9,11.9,26.2,17.8,43,17.8C293,583.6,326.5,583.6,360,583.6z"/>
	<path class="st0" d="M193.1,257.3c2.4-8.7,8.6-14.2,16.2-18.3c1.1-0.6,1.5-1,1.1-2.3c-0.5-1.4-0.8-2.9-1.2-4.4
		c-3.5-13.4-5-26.9-2.8-40.7c1-6.5,2.6-12.8,4-19.2c0.2-0.9,0.5-1.5-0.6-2.1c-2.5-1.4-5-3-7.3-4.7c-8.3-6.2-12-17.2-9.4-27.3
		c4.2-16.2,23.3-26.6,42.2-14.4c1.6,1,2.2,0.8,3.3-0.4c10.1-10.4,21.7-18.8,35-24.6c6.5-2.8,13.3-4.7,19.9-7.1c0.7-0.3,2,0.1,2-1.5
		c0.1-3,0.1-6.1,0.5-9.1c2.6-18.9,24.4-28.6,40.3-18.1c9.3,6.2,12.3,15.3,12.1,25.9c-0.1,2.1,0.7,2.5,2.4,2.9
		c13.3,3.4,25.8,8.8,36.9,16.9c6.3,4.6,12,10,17.9,15c0.6,0.5,0.9,1.5,2.1,0.8c2.6-1.5,5.1-3,7.9-4.2c17-6.9,36.1,6,36,24.3
		c0,12.1-6.9,19.8-16.9,25.3c-1.3,0.7-1.6,1.2-1.2,2.6c1.1,4.2,2.2,8.4,3,12.7c2,10.1,2.8,20.2,1.2,30.4c-1.1,7-2.8,13.8-4.2,20.7
		c-0.2,0.9-0.6,1.7,0.6,2.4c2.8,1.7,5.7,3.3,8.2,5.4c7.9,6.8,10.9,15.5,8.6,25.7c-3.8,16.9-23.4,27.5-42.4,15.2
		c-1.5-1-2.1-0.8-3.2,0.3c-8,8.3-17.1,15.2-27.1,20.8c-8.8,4.9-18.1,8.6-27.9,11.1c-0.8,0.2-1.9,0.1-1.9,1.6c0,2.7-0.1,5.5-0.4,8.2
		c-1.5,15.2-16.7,26.1-31.5,22.5c-16.5-4-21.3-16.8-21.1-29.6c0-2-0.5-2.4-2.1-2.8c-11.4-2.8-22.1-7.4-32.1-13.5
		c-8.4-5.1-16-11.2-22.8-18.3c-1-1.1-1.6-1.2-3-0.3c-5.1,3.2-10.6,5.6-16.3,5.4C201.1,290.6,188.5,274.1,193.1,257.3z M321.9,160.8
		c-24.2-0.1-44,19.7-44,43.8c0,24.2,19.9,44,44,43.9c24.1-0.1,43.7-19.7,43.7-43.9C365.7,180.4,346.2,160.9,321.9,160.8z"/>
</g>
</svg>