<svg width="1600" height="554" viewBox="0 0 1600 554" fill="none" xmlns="http://www.w3.org/2000/svg">
<g id="BG">
<rect id="Placeholder" width="1600" height="554" fill="#A673F7"/>
<mask id="mask0" mask-type="alpha" maskUnits="userSpaceOnUse" x="0" y="0" width="1600" height="554">
<rect id="Placeholder_2" width="1600" height="554" fill="white"/>
</mask>
<g mask="url(#mask0)">
<g id="Global/BG/First-block/Purple">
<g id="BG_2">
<rect id="Mask" x="-16" y="36" width="1632" height="518" fill="url(#paint0_linear)"/>
<mask id="mask1" mask-type="alpha" maskUnits="userSpaceOnUse" x="-16" y="36" width="1632" height="518">
<rect id="Mask_2" x="-16" y="36" width="1632" height="518" fill="white"/>
</mask>
<g mask="url(#mask1)">
<g id="Group 2">
<path id="Oval" opacity="0.18" fill-rule="evenodd" clip-rule="evenodd" d="M-25.1802 530.267C4.67628 530.267 28.8798 505.782 28.8798 475.578C28.8798 445.374 4.67628 420.888 -25.1802 420.888C-55.0367 420.888 -79.2402 445.374 -79.2402 475.578C-79.2402 505.782 -55.0367 530.267 -25.1802 530.267Z" fill="url(#paint1_linear)"/>
</g>
<g id="Group 24">
<path id="Oval_2" opacity="0.18" fill-rule="evenodd" clip-rule="evenodd" d="M1330.36 265.076C1359.37 265.076 1382.89 241.283 1382.89 211.934C1382.89 182.585 1359.37 158.793 1330.36 158.793C1301.34 158.793 1277.83 182.585 1277.83 211.934C1277.83 241.283 1301.34 265.076 1330.36 265.076Z" fill="url(#paint2_linear)"/>
<path id="Path" opacity="0.422201" fill-rule="evenodd" clip-rule="evenodd" d="M1541.54 408.506C1541.54 388.548 1525.55 372.391 1505.84 372.391C1486.14 372.391 1470.14 388.548 1470.14 408.506C1470.14 428.464 1486.14 444.622 1505.84 444.622C1508.28 444.622 1510.26 442.6 1510.26 440.107C1510.26 437.614 1508.28 435.593 1505.84 435.593C1490.99 435.593 1478.97 423.454 1478.97 408.506C1478.97 393.559 1490.99 381.419 1505.84 381.419C1520.69 381.419 1532.71 393.559 1532.71 408.506C1532.71 410.999 1534.68 413.02 1537.12 413.02C1539.56 413.02 1541.54 410.999 1541.54 408.506Z" fill="#8E63D5"/>
<rect id="Rectangle" opacity="0.18" width="136.181" height="136.722" transform="matrix(0.816015 -0.578031 0.569123 0.822252 1233.38 491.155)" fill="url(#paint3_linear)"/>
<path id="Path 15" fill-rule="evenodd" clip-rule="evenodd" d="M1388.2 445.137L1368.91 480.884L1412.46 477.516L1388.2 445.137Z" fill="#8E63D5"/>
<g id="Group 23 Copy">
<path id="Path 16" opacity="0.131381" fill-rule="evenodd" clip-rule="evenodd" d="M1558.14 504.645C1568.01 496.629 1575.32 493.646 1579.67 494.964C1582.03 495.682 1582.65 496.116 1594.49 504.994C1596.96 506.843 1598.93 508.271 1600.86 509.575C1609.9 515.698 1616.78 518.314 1623.09 516.326C1628.05 514.761 1630.3 513.225 1640.66 505.231C1650.01 498.016 1655.36 495.16 1661.21 495.16C1666.07 495.16 1669.93 497.549 1677.95 504.69C1678.35 505.051 1678.58 505.254 1678.76 505.415C1679.07 505.694 1679.33 505.925 1679.58 506.146C1687.87 513.477 1692.98 516.536 1699.99 516.536C1704.22 516.536 1708.38 515.153 1712.81 512.582C1715.98 510.747 1718.63 508.808 1723.61 504.859C1733.02 497.395 1736.71 495.16 1740.6 495.16C1748.01 495.16 1754.73 498.191 1760.94 504.453C1762.73 506.263 1765.64 506.258 1767.43 504.441C1769.22 502.625 1769.21 499.685 1767.42 497.875C1759.55 489.94 1750.54 485.873 1740.6 485.873C1736.62 485.873 1732.71 487.272 1728.42 489.875C1725.47 491.662 1723.53 493.122 1717.94 497.549C1708.9 504.715 1704.53 507.249 1699.99 507.249C1695.96 507.249 1692.29 505.053 1685.63 499.157C1685.39 498.942 1685.13 498.716 1684.83 498.443C1684.65 498.284 1684.42 498.083 1684.01 497.719C1679.48 493.686 1677.13 491.765 1674.11 489.896C1669.88 487.278 1665.69 485.873 1661.21 485.873C1652.67 485.873 1646 489.43 1635.09 497.846C1625.89 504.943 1623.81 506.373 1620.36 507.459C1617.62 508.321 1612.8 506.488 1605.96 501.858C1604.18 500.65 1602.32 499.301 1599.96 497.534C1599 496.816 1595.78 494.373 1595.31 494.018C1593.49 492.65 1592.12 491.642 1590.83 490.737C1587.36 488.308 1584.72 486.801 1582.3 486.068C1574.25 483.628 1564.41 487.65 1552.39 497.402C1550.42 499.007 1550.1 501.929 1551.68 503.929C1553.27 505.93 1556.16 506.25 1558.14 504.645Z" fill="url(#paint4_linear)"/>
<path id="Path 16 Copy" opacity="0.131381" fill-rule="evenodd" clip-rule="evenodd" d="M1558.14 534.769C1568.01 526.752 1575.32 523.769 1579.67 525.088C1582.03 525.806 1582.65 526.24 1594.49 535.118C1596.96 536.966 1598.93 538.394 1600.86 539.699C1609.9 545.822 1616.78 548.438 1623.09 546.45C1628.05 544.885 1630.3 543.349 1640.66 535.354C1650.01 528.139 1655.36 525.283 1661.21 525.283C1666.07 525.283 1669.93 527.672 1677.95 534.813C1678.35 535.175 1678.58 535.378 1678.76 535.539C1679.07 535.818 1679.33 536.049 1679.58 536.27C1687.87 543.6 1692.98 546.66 1699.99 546.66C1704.22 546.66 1708.38 545.276 1712.81 542.706C1715.98 540.87 1718.63 538.931 1723.61 534.983C1733.02 527.518 1736.71 525.283 1740.6 525.283C1748.01 525.283 1754.73 528.315 1760.94 534.577C1762.73 536.387 1765.64 536.382 1767.43 534.565C1769.22 532.748 1769.21 529.808 1767.42 527.998C1759.55 520.063 1750.54 515.996 1740.6 515.996C1736.62 515.996 1732.71 517.395 1728.42 519.998C1725.47 521.786 1723.53 523.246 1717.94 527.673C1708.9 534.839 1704.53 537.373 1699.99 537.373C1695.96 537.373 1692.29 535.177 1685.63 529.28C1685.39 529.066 1685.13 528.84 1684.83 528.567C1684.65 528.407 1684.42 528.206 1684.01 527.843C1679.48 523.81 1677.13 521.888 1674.11 520.019C1669.88 517.401 1665.69 515.996 1661.21 515.996C1652.67 515.996 1646 519.553 1635.09 527.97C1625.89 535.066 1623.81 536.497 1620.36 537.583C1617.62 538.445 1612.8 536.611 1605.96 531.981C1604.18 530.774 1602.32 529.425 1599.96 527.658C1599 526.94 1595.78 524.497 1595.31 524.141C1593.49 522.774 1592.12 521.766 1590.83 520.861C1587.36 518.431 1584.72 516.925 1582.3 516.192C1574.25 513.752 1564.41 517.774 1552.39 527.525C1550.42 529.13 1550.1 532.053 1551.68 534.053C1553.27 536.053 1556.16 536.374 1558.14 534.769Z" fill="url(#paint5_linear)"/>
<path id="Path 16 Copy 2" opacity="0.131381" fill-rule="evenodd" clip-rule="evenodd" d="M1558.14 564.693C1568.01 556.677 1575.32 553.693 1579.67 555.012C1582.03 555.73 1582.65 556.164 1594.49 565.042C1596.96 566.891 1598.93 568.318 1600.86 569.623C1609.9 575.746 1616.78 578.362 1623.09 576.374C1628.05 574.809 1630.3 573.273 1640.66 565.278C1650.01 558.064 1655.36 555.208 1661.21 555.208C1666.07 555.208 1669.93 557.597 1677.95 564.738C1678.35 565.099 1678.58 565.302 1678.76 565.463C1679.07 565.742 1679.33 565.973 1679.58 566.194C1687.87 573.524 1692.98 576.584 1699.99 576.584C1704.22 576.584 1708.38 575.201 1712.81 572.63C1715.98 570.795 1718.63 568.856 1723.61 564.907C1733.02 557.442 1736.71 555.208 1740.6 555.208C1748.01 555.208 1754.73 558.239 1760.94 564.501C1762.73 566.311 1765.64 566.306 1767.43 564.489C1769.22 562.673 1769.21 559.733 1767.42 557.923C1759.55 549.988 1750.54 545.921 1740.6 545.921C1736.62 545.921 1732.71 547.32 1728.42 549.922C1725.47 551.71 1723.53 553.17 1717.94 557.597C1708.9 564.763 1704.53 567.297 1699.99 567.297C1695.96 567.297 1692.29 565.101 1685.63 559.205C1685.39 558.99 1685.13 558.764 1684.83 558.491C1684.65 558.332 1684.42 558.131 1684.01 557.767C1679.48 553.734 1677.13 551.813 1674.11 549.944C1669.88 547.326 1665.69 545.921 1661.21 545.921C1652.67 545.921 1646 549.478 1635.09 557.894C1625.89 564.991 1623.81 566.421 1620.36 567.507C1617.62 568.369 1612.8 566.536 1605.96 561.906C1604.18 560.698 1602.32 559.349 1599.96 557.582C1599 556.864 1595.78 554.421 1595.31 554.065C1593.49 552.698 1592.12 551.69 1590.83 550.785C1587.36 548.356 1584.72 546.849 1582.3 546.116C1574.25 543.676 1564.41 547.698 1552.39 557.45C1550.42 559.055 1550.1 561.977 1551.68 563.977C1553.27 565.978 1556.16 566.298 1558.14 564.693Z" fill="url(#paint6_linear)"/>
</g>
</g>
</g>
</g>
<g id="Group 26">
<g id="Group 23">
<path id="Path 16_2" opacity="0.18" fill-rule="evenodd" clip-rule="evenodd" d="M114.506 493.455C124.382 485.438 131.684 482.455 136.035 483.774C138.403 484.492 139.023 484.926 150.861 493.804C153.325 495.653 155.299 497.08 157.226 498.385C166.268 504.508 173.145 507.124 179.456 505.136C184.423 503.571 186.664 502.035 197.025 494.04C206.375 486.825 211.731 483.969 217.58 483.969C222.439 483.969 226.298 486.359 234.315 493.499C234.722 493.861 234.949 494.064 235.13 494.225C235.443 494.504 235.703 494.735 235.953 494.956C244.235 502.286 249.349 505.346 256.362 505.346C260.588 505.346 264.744 503.963 269.182 501.392C272.352 499.557 274.994 497.618 279.975 493.669C289.392 486.204 293.074 483.969 296.973 483.969C304.382 483.969 311.094 487.001 317.306 493.263C319.102 495.073 322.008 495.068 323.797 493.251C325.587 491.435 325.581 488.495 323.786 486.685C315.914 478.75 306.91 474.683 296.973 474.683C292.993 474.683 289.074 476.082 284.786 478.684C281.841 480.472 279.898 481.932 274.313 486.359C265.272 493.525 260.897 496.059 256.362 496.059C252.33 496.059 248.66 493.863 241.998 487.967C241.755 487.752 241.501 487.526 241.194 487.253C241.015 487.093 240.79 486.893 240.381 486.529C235.854 482.496 233.495 480.574 230.476 478.706C226.248 476.088 222.058 474.683 217.58 474.683C209.035 474.683 202.365 478.24 191.458 486.656C182.261 493.753 180.174 495.183 176.726 496.269C173.99 497.131 169.17 495.298 162.332 490.668C160.549 489.46 158.684 488.111 156.328 486.344C155.37 485.626 152.146 483.183 151.674 482.827C149.859 481.46 148.487 480.452 147.196 479.547C143.73 477.118 141.088 475.611 138.67 474.878C130.619 472.438 120.775 476.46 108.761 486.212C106.784 487.817 106.467 490.739 108.054 492.739C109.64 494.74 112.529 495.06 114.506 493.455Z" fill="url(#paint7_linear)"/>
<path id="Path 16 Copy_2" opacity="0.18" fill-rule="evenodd" clip-rule="evenodd" d="M114.506 523.579C124.382 515.562 131.684 512.579 136.035 513.898C138.403 514.616 139.023 515.05 150.861 523.928C153.325 525.776 155.299 527.204 157.226 528.509C166.268 534.632 173.145 537.248 179.456 535.26C184.423 533.695 186.664 532.159 197.025 524.164C206.375 516.949 211.731 514.093 217.58 514.093C222.439 514.093 226.298 516.482 234.315 523.623C234.722 523.985 234.949 524.188 235.13 524.349C235.443 524.628 235.703 524.858 235.953 525.08C244.235 532.41 249.349 535.47 256.362 535.47C260.588 535.47 264.744 534.086 269.182 531.516C272.352 529.68 274.994 527.741 279.975 523.793C289.392 516.328 293.074 514.093 296.973 514.093C304.382 514.093 311.094 517.125 317.306 523.387C319.102 525.197 322.008 525.192 323.797 523.375C325.587 521.558 325.581 518.618 323.786 516.808C315.914 508.873 306.91 504.806 296.973 504.806C292.993 504.806 289.074 506.205 284.786 508.808C281.841 510.596 279.898 512.056 274.313 516.483C265.272 523.649 260.897 526.183 256.362 526.183C252.33 526.183 248.66 523.987 241.998 518.09C241.755 517.875 241.501 517.65 241.194 517.377C241.015 517.217 240.79 517.016 240.381 516.653C235.854 512.62 233.495 510.698 230.476 508.829C226.248 506.211 222.058 504.806 217.58 504.806C209.035 504.806 202.365 508.363 191.458 516.78C182.261 523.876 180.174 525.307 176.726 526.393C173.99 527.255 169.17 525.421 162.332 520.791C160.549 519.583 158.684 518.235 156.328 516.468C155.37 515.75 152.146 513.306 151.674 512.951C149.859 511.584 148.487 510.576 147.196 509.671C143.73 507.241 141.088 505.735 138.67 505.002C130.619 502.562 120.775 506.584 108.761 516.335C106.784 517.94 106.467 520.863 108.054 522.863C109.64 524.863 112.529 525.184 114.506 523.579Z" fill="url(#paint8_linear)"/>
<path id="Path 16 Copy 2_2" opacity="0.18" fill-rule="evenodd" clip-rule="evenodd" d="M114.506 553.503C124.382 545.486 131.684 542.503 136.035 543.822C138.403 544.54 139.023 544.974 150.861 553.852C153.325 555.701 155.299 557.128 157.226 558.433C166.268 564.556 173.145 567.172 179.456 565.184C184.423 563.619 186.664 562.083 197.025 554.088C206.375 546.873 211.731 544.017 217.58 544.017C222.439 544.017 226.298 546.407 234.315 553.547C234.722 553.909 234.949 554.112 235.13 554.273C235.443 554.552 235.703 554.783 235.953 555.004C244.235 562.334 249.349 565.394 256.362 565.394C260.588 565.394 264.744 564.01 269.182 561.44C272.352 559.605 274.994 557.666 279.975 553.717C289.392 546.252 293.074 544.017 296.973 544.017C304.382 544.017 311.094 547.049 317.306 553.311C319.102 555.121 322.008 555.116 323.797 553.299C325.587 551.483 325.581 548.543 323.786 546.732C315.914 538.798 306.91 534.731 296.973 534.731C292.993 534.731 289.074 536.13 284.786 538.732C281.841 540.52 279.898 541.98 274.313 546.407C265.272 553.573 260.897 556.107 256.362 556.107C252.33 556.107 248.66 553.911 241.998 548.015C241.755 547.8 241.501 547.574 241.194 547.301C241.015 547.141 240.79 546.941 240.381 546.577C235.854 542.544 233.495 540.622 230.476 538.754C226.248 536.136 222.058 534.731 217.58 534.731C209.035 534.731 202.365 538.288 191.458 546.704C182.261 553.801 180.174 555.231 176.726 556.317C173.99 557.179 169.17 555.346 162.332 550.715C160.549 549.508 158.684 548.159 156.328 546.392C155.37 545.674 152.146 543.231 151.674 542.875C149.859 541.508 148.487 540.5 147.196 539.595C143.73 537.166 141.088 535.659 138.67 534.926C130.619 532.486 120.775 536.508 108.761 546.26C106.784 547.865 106.467 550.787 108.054 552.787C109.64 554.788 112.529 555.108 114.506 553.503Z" fill="url(#paint9_linear)"/>
</g>
<path id="Path 19" opacity="0.18" fill-rule="evenodd" clip-rule="evenodd" d="M252.706 254.891L181.977 219.791L226.128 199.112L252.706 254.891Z" fill="url(#paint10_linear)"/>
<rect id="Rectangle_2" width="39.8825" height="40.1415" transform="matrix(0.880678 0.473715 -0.465244 0.885182 226.186 344.662)" fill="#8E63D5"/>
<rect id="Rectangle Copy" width="28.6336" height="28.8195" transform="matrix(0.880678 0.473715 -0.465244 0.885182 236.155 379.682)" fill="url(#paint11_linear)"/>
</g>
</g>
</g>
</g>
<defs>
<linearGradient id="paint0_linear" x1="250.754" y1="205.337" x2="250.754" y2="554" gradientUnits="userSpaceOnUse">
<stop stop-color="#A674F7"/>
<stop offset="1" stop-color="#9869E4"/>
</linearGradient>
<linearGradient id="paint1_linear" x1="25.5938" y1="422.612" x2="-79.1185" y2="422.612" gradientUnits="userSpaceOnUse">
<stop stop-color="white"/>
<stop offset="1" stop-color="#9869E4"/>
</linearGradient>
<linearGradient id="paint2_linear" x1="1283.94" y1="217.726" x2="1337.71" y2="238.624" gradientUnits="userSpaceOnUse">
<stop stop-color="white"/>
<stop offset="1" stop-color="#9869E4"/>
</linearGradient>
<linearGradient id="paint3_linear" x1="132.043" y1="2.15459" x2="0.153341" y2="2.15459" gradientUnits="userSpaceOnUse">
<stop stop-color="white"/>
<stop offset="1" stop-color="#9869E4"/>
</linearGradient>
<linearGradient id="paint4_linear" x1="1519.5" y1="500.817" x2="1524.83" y2="542.022" gradientUnits="userSpaceOnUse">
<stop stop-color="white"/>
<stop offset="1" stop-color="#9869E4"/>
</linearGradient>
<linearGradient id="paint5_linear" x1="1519.5" y1="530.94" x2="1524.83" y2="572.146" gradientUnits="userSpaceOnUse">
<stop stop-color="white"/>
<stop offset="1" stop-color="#9869E4"/>
</linearGradient>
<linearGradient id="paint6_linear" x1="1519.5" y1="560.865" x2="1524.83" y2="602.07" gradientUnits="userSpaceOnUse">
<stop stop-color="white"/>
<stop offset="1" stop-color="#9869E4"/>
</linearGradient>
<linearGradient id="paint7_linear" x1="318.508" y1="474.68" x2="107.289" y2="474.68" gradientUnits="userSpaceOnUse">
<stop stop-color="white"/>
<stop offset="1" stop-color="#9869E4"/>
</linearGradient>
<linearGradient id="paint8_linear" x1="318.508" y1="504.804" x2="107.289" y2="504.804" gradientUnits="userSpaceOnUse">
<stop stop-color="white"/>
<stop offset="1" stop-color="#9869E4"/>
</linearGradient>
<linearGradient id="paint9_linear" x1="318.508" y1="534.728" x2="107.289" y2="534.728" gradientUnits="userSpaceOnUse">
<stop stop-color="white"/>
<stop offset="1" stop-color="#9869E4"/>
</linearGradient>
<linearGradient id="paint10_linear" x1="233.914" y1="256.659" x2="245.914" y2="204.968" gradientUnits="userSpaceOnUse">
<stop stop-color="white"/>
<stop offset="1" stop-color="#9869E4"/>
</linearGradient>
<linearGradient id="paint11_linear" x1="0" y1="28.8195" x2="28.6336" y2="28.8195" gradientUnits="userSpaceOnUse">
<stop stop-color="#A06FEF"/>
<stop offset="1" stop-color="#B088F0"/>
</linearGradient>
</defs>
</svg>
